<svg width="32" height="32" viewBox="0 0 32 32" fill="none" xmlns="http://www.w3.org/2000/svg">
<g clip-path="url(#clip0_326_8009)">
<path fill-rule="evenodd" clip-rule="evenodd" d="M32 16C32 24.8351 24.8351 32 16 32C7.16494 32 0 24.8351 0 16C0 7.16494 7.16494 0 16 0C24.8351 0 32 7.16494 32 16Z" fill="#29296E"/>
<path fill-rule="evenodd" clip-rule="evenodd" d="M23.4966 11.7294L23.0886 10.48C23.0122 10.225 22.8082 10.0338 22.5532 9.94455L21.3038 9.56208C21.1253 9.51109 21.1253 9.26886 21.3038 9.20511L22.5532 8.79714C22.8082 8.72065 22.9994 8.51667 23.0886 8.26169L23.4711 7.01228C23.5221 6.8338 23.7643 6.8338 23.8281 7.01228L24.2361 8.26169C24.3126 8.51667 24.5165 8.7079 24.7715 8.79714L26.0209 9.17961C26.1994 9.23061 26.1994 9.47284 26.0209 9.53659L24.7715 9.94455C24.5165 10.021 24.3253 10.225 24.2361 10.48L23.8536 11.7294C23.7898 11.8952 23.5476 11.8952 23.4966 11.7294Z" fill="#FAFAFA"/>
<path fill-rule="evenodd" clip-rule="evenodd" d="M1.40234 15.7448C1.78481 14.9926 2.53701 14.4189 3.32744 14.062C4.11788 13.705 4.98481 13.4883 5.839 13.4245C7.56011 13.2715 9.24298 13.552 10.7729 14.062C11.5633 14.3042 12.2645 14.6229 12.9912 14.9544C13.3482 15.1201 13.6796 15.3241 14.0239 15.5153L14.9673 16.0635C16.0127 16.701 17.0199 17.2747 17.9633 17.7209C18.9195 18.1544 19.7737 18.4604 20.5768 18.6134C21.38 18.7663 22.2087 18.7663 23.2159 18.5369C24.2231 18.3074 25.345 17.8102 26.5306 17.1855C27.7163 16.548 28.9402 15.7703 30.3298 15.0181C30.1896 16.599 29.7434 18.0906 29.0549 19.5313C28.341 20.9464 27.3466 22.3361 25.9059 23.458C24.4908 24.5926 22.5402 25.3703 20.5641 25.4978C18.5753 25.6381 16.7011 25.1918 15.0948 24.5289C13.4884 23.8532 12.086 22.9735 10.8621 22.0046C10.5179 21.7369 10.3394 21.5839 10.0844 21.3671L9.38322 20.7424C8.91151 20.3727 8.45254 19.9265 7.98083 19.5568C7.05015 18.7408 6.11948 17.9504 5.09956 17.2747C4.58959 16.9305 4.06689 16.599 3.46768 16.3185C3.17446 16.1783 2.85573 16.0508 2.51151 15.9488C2.16728 15.8341 1.82306 15.7703 1.40234 15.7448Z" fill="#FF4F0A"/>
<path fill-rule="evenodd" clip-rule="evenodd" d="M1.40234 15.7711C1.59358 14.152 2.34577 12.6349 3.55693 11.3472C4.75533 10.0723 6.64218 9.07789 8.72027 8.9504C9.75294 8.88666 10.7984 9.0014 11.7545 9.25638C12.7107 9.52411 13.6031 9.90658 14.4191 10.3655C14.827 10.595 15.1968 10.85 15.5792 11.0922L16.5864 11.8572L18.1545 13.0938C19.1745 13.897 20.1434 14.6492 21.0358 15.2739C21.941 15.8986 22.7059 16.3448 23.4454 16.6126C24.1721 16.9058 25.09 16.9695 26.3139 16.6636C26.9131 16.5233 27.5506 16.2683 28.2262 15.9879C28.8892 15.7074 29.5904 15.3632 30.3553 15.0317C30.2661 15.8476 30.1004 16.6508 29.7816 17.4157C29.4757 18.1807 29.0804 18.9329 28.5322 19.6341C28.2517 19.9783 27.9458 20.3225 27.5888 20.6285C27.2318 20.9345 26.8366 21.2277 26.4031 21.4827C25.5362 21.9799 24.5035 22.3496 23.4454 22.4898C22.3872 22.6173 21.329 22.5536 20.3601 22.3496C19.3912 22.1456 18.5115 21.8269 17.6956 21.4572C16.0764 20.705 14.7251 19.7616 13.5266 18.7544C12.9274 18.2572 12.3665 17.7345 11.831 17.199L11.2063 16.5616C11.0151 16.3831 10.8239 16.1918 10.6326 16.0261C9.86768 15.3504 9.15374 14.8277 8.37605 14.509C7.59836 14.1647 6.60394 14.0373 5.38003 14.2667C4.15613 14.509 2.83023 15.0317 1.40234 15.7711Z" fill="#FAFAFA"/>
<path fill-rule="evenodd" clip-rule="evenodd" d="M7.904 24.0956C7.904 24.5928 7.50878 24.988 7.01157 24.988C6.51436 24.988 6.11914 24.5928 6.11914 24.0956C6.11914 23.5983 6.51436 23.2031 7.01157 23.2031C7.50878 23.2031 7.904 23.5983 7.904 24.0956Z" fill="#FAFAFA"/>
<path fill-rule="evenodd" clip-rule="evenodd" d="M7.904 24.0956C7.904 24.5928 7.50878 24.988 7.01157 24.988C6.51436 24.988 6.11914 24.5928 6.11914 24.0956C6.11914 23.5983 6.51436 23.2031 7.01157 23.2031C7.50878 23.2031 7.904 23.5983 7.904 24.0956Z" fill="#FAFAFA"/>
</g>
<defs>
<clipPath id="clip0_326_8009">
<rect width="32" height="32" fill="white"/>
</clipPath>
</defs>
</svg>
