<svg width="12" height="16" viewBox="0 0 12 16" fill="none" xmlns="http://www.w3.org/2000/svg">
<path d="M9.2 11.9999C9.94673 11.9999 10.3201 11.9999 10.6053 11.8546C10.8562 11.7268 11.0602 11.5228 11.188 11.2719C11.3333 10.9867 11.3333 10.6133 11.3333 9.86658V3.46659C11.3333 2.71985 11.3333 2.34648 11.188 2.06126C11.0602 1.81038 10.8562 1.60641 10.6053 1.47858C10.3201 1.33325 9.94673 1.33325 9.2 1.33325H5.46666C4.71993 1.33325 4.34656 1.33325 4.06134 1.47858C3.81046 1.60641 3.60649 1.81038 3.47866 2.06126C3.33333 2.34648 3.33333 2.71985 3.33333 3.46659M2.8 14.6666H6.53333C7.28007 14.6666 7.65344 14.6666 7.93865 14.5213C8.18953 14.3934 8.39351 14.1895 8.52134 13.9386C8.66666 13.6534 8.66666 13.28 8.66666 12.5333V6.13325C8.66666 5.38651 8.66666 5.01315 8.52134 4.72793C8.39351 4.47705 8.18953 4.27307 7.93865 4.14524C7.65344 3.99992 7.28007 3.99992 6.53333 3.99992H2.8C2.05326 3.99992 1.67989 3.99992 1.39468 4.14524C1.14379 4.27307 0.93982 4.47705 0.811989 4.72793C0.666664 5.01315 0.666664 5.38651 0.666664 6.13325V12.5333C0.666664 13.28 0.666664 13.6534 0.811989 13.9386C0.93982 14.1895 1.14379 14.3934 1.39468 14.5213C1.67989 14.6666 2.05326 14.6666 2.8 14.6666Z" stroke="#545454" stroke-width="1.33333"/>
</svg>
