<svg width="24" height="25" viewBox="0 0 24 25" fill="none" xmlns="http://www.w3.org/2000/svg">
<path d="M5.01198 17.4644L5.96066 17.7806H5.96066L5.01198 17.4644ZM5.76117 15.2168L4.81248 14.9006H4.81248L5.76117 15.2168ZM6.53421 13.966L7.24132 14.6731L7.24132 14.6731L6.53421 13.966ZM14.0001 6.50018L13.2929 5.79308V5.79308L14.0001 6.50018ZM18 10.5002L18.7072 11.2073H18.7072L18 10.5002ZM10.5342 17.966L9.8271 17.2589L9.8271 17.2589L10.5342 17.966ZM9.2834 18.7391L9.59963 19.6878H9.59963L9.2834 18.7391ZM7.03584 19.4883L7.35206 20.4369L7.35206 20.4369L7.03584 19.4883ZM10.1242 18.3488L9.52193 17.5504L9.52192 17.5504L10.1242 18.3488ZM9.8091 18.5435L9.36439 17.6478L9.8091 18.5435ZM18.9637 7.61215L18.0676 8.05617V8.05617L18.9637 7.61215ZM18.9637 9.38822L18.0676 8.9442V8.9442L18.9637 9.38822ZM15.112 5.53658L15.556 6.43259V6.43259L15.112 5.53658ZM16.8881 5.53658L16.4441 6.43259V6.43259L16.8881 5.53658ZM5.95676 14.6911L6.85244 15.1358L6.85244 15.1358L5.95676 14.6911ZM6.15148 14.3761L5.35317 13.7738L5.35317 13.7738L6.15148 14.3761ZM4.63928 19.2549L3.69738 19.5908L4.63928 19.2549ZM5.24531 19.861L4.90943 20.8029L4.90943 20.8029L5.24531 19.861ZM13.7072 6.79311C13.3166 6.40259 12.6835 6.40259 12.2929 6.79311C11.9024 7.18364 11.9024 7.8168 12.2929 8.20733L13 7.50022L13.7072 6.79311ZM16.2929 12.2073C16.6835 12.5979 17.3166 12.5979 17.7072 12.2073C18.0977 11.8168 18.0977 11.1836 17.7072 10.7931L17 11.5002L16.2929 12.2073ZM12 19.5002C11.4478 19.5002 11 19.9479 11 20.5002C11 21.0525 11.4478 21.5002 12 21.5002V20.5002V19.5002ZM19 21.5002C19.5523 21.5002 20 21.0525 20 20.5002C20 19.9479 19.5523 19.5002 19 19.5002V20.5002V21.5002ZM5.01198 17.4644L5.96066 17.7806L6.70985 15.5331L5.76117 15.2168L4.81248 14.9006L4.0633 17.1482L5.01198 17.4644ZM6.53421 13.966L7.24132 14.6731L14.7072 7.20729L14.0001 6.50018L13.2929 5.79308L5.8271 13.2589L6.53421 13.966ZM18 10.5002L17.2929 9.79308L9.8271 17.2589L10.5342 17.966L11.2413 18.6731L18.7072 11.2073L18 10.5002ZM9.2834 18.7391L8.96717 17.7904L6.71961 18.5396L7.03584 19.4883L7.35206 20.4369L9.59963 19.6878L9.2834 18.7391ZM10.5342 17.966L9.8271 17.2589C9.60902 17.477 9.56482 17.5181 9.52193 17.5504L10.1242 18.3488L10.7264 19.1471C10.906 19.0116 11.061 18.8535 11.2413 18.6731L10.5342 17.966ZM9.2834 18.7391L9.59963 19.6878C9.84158 19.6071 10.0524 19.5392 10.2538 19.4392L9.8091 18.5435L9.36439 17.6478C9.31627 17.6717 9.25977 17.6929 8.96717 17.7904L9.2834 18.7391ZM10.1242 18.3488L9.52192 17.5504C9.47254 17.5877 9.4198 17.6203 9.36439 17.6478L9.8091 18.5435L10.2538 19.4392C10.42 19.3566 10.5782 19.2588 10.7264 19.1471L10.1242 18.3488ZM18 6.50019L17.2929 7.20729C17.8953 7.80963 18.0131 7.94619 18.0676 8.05617L18.9637 7.61215L19.8597 7.16814C19.6227 6.68993 19.1953 6.28124 18.7072 5.79308L18 6.50019ZM18 10.5002L18.7072 11.2073C19.1953 10.7191 19.6227 10.3104 19.8597 9.83223L18.9637 9.38822L18.0676 8.9442C18.0131 9.05418 17.8953 9.19074 17.2929 9.79308L18 10.5002ZM18.9637 7.61215L18.0676 8.05617C18.2063 8.33595 18.2063 8.66442 18.0676 8.9442L18.9637 9.38822L19.8597 9.83223C20.2756 8.9929 20.2756 8.00747 19.8597 7.16814L18.9637 7.61215ZM14.0001 6.50018L14.7072 7.20729C15.3095 6.60495 15.4461 6.48709 15.556 6.43259L15.112 5.53658L14.668 4.64056C14.1898 4.87753 13.7811 5.30493 13.2929 5.79308L14.0001 6.50018ZM18 6.50019L18.7072 5.79308C18.219 5.30492 17.8103 4.87753 17.3321 4.64056L16.8881 5.53658L16.4441 6.43259C16.554 6.48709 16.6906 6.60495 17.2929 7.20729L18 6.50019ZM15.112 5.53658L15.556 6.43259C15.8358 6.29395 16.1643 6.29395 16.4441 6.43259L16.8881 5.53658L17.3321 4.64056C16.4928 4.22463 15.5073 4.22463 14.668 4.64056L15.112 5.53658ZM5.76117 15.2168L6.70985 15.5331C6.80738 15.2405 6.82854 15.184 6.85244 15.1358L5.95676 14.6911L5.06108 14.2464C4.96106 14.4479 4.89313 14.6587 4.81248 14.9006L5.76117 15.2168ZM6.53421 13.966L5.82711 13.2589C5.64676 13.4393 5.48862 13.5943 5.35317 13.7738L6.15148 14.3761L6.9498 14.9783C6.98215 14.9354 7.02323 14.8912 7.24132 14.6731L6.53421 13.966ZM5.95676 14.6911L6.85244 15.1358C6.87995 15.0804 6.91254 15.0277 6.9498 14.9783L6.15148 14.3761L5.35317 13.7738C5.2414 13.922 5.14362 14.0802 5.06108 14.2464L5.95676 14.6911ZM5.01198 17.4644L4.0633 17.1482C3.90675 17.6178 3.76644 18.0356 3.68656 18.3755C3.61018 18.7006 3.53801 19.1439 3.69738 19.5908L4.63928 19.2549L5.58119 18.919C5.6247 19.0411 5.57603 19.0777 5.63353 18.833C5.68755 18.6031 5.79151 18.2881 5.96066 17.7806L5.01198 17.4644ZM7.03584 19.4883L6.71961 18.5396C6.21215 18.7087 5.89711 18.8127 5.66724 18.8667C5.42254 18.9242 5.45916 18.8755 5.58119 18.919L5.24531 19.861L4.90943 20.8029C5.35634 20.9622 5.79968 20.8901 6.12475 20.8137C6.46465 20.7338 6.88243 20.5935 7.35206 20.4369L7.03584 19.4883ZM4.63928 19.2549L3.69738 19.5908C3.89902 20.1563 4.34398 20.6012 4.90943 20.8029L5.24531 19.861L5.58119 18.919L5.58119 18.919L4.63928 19.2549ZM13 7.50022L12.2929 8.20733L16.2929 12.2073L17 11.5002L17.7072 10.7931L13.7072 6.79311L13 7.50022ZM12 20.5002V21.5002H19V20.5002V19.5002H12V20.5002Z" fill="#363636"/>
</svg>
