<svg width="20" height="21" viewBox="0 0 20 21" fill="none" xmlns="http://www.w3.org/2000/svg">
<path d="M16.6667 6.90667C16.6667 7.36691 17.0398 7.74001 17.5 7.74001C17.9602 7.74001 18.3333 7.36691 18.3333 6.90667H17.5H16.6667ZM13.3333 1.90667C12.8731 1.90667 12.5 2.27977 12.5 2.74001C12.5 3.20024 12.8731 3.57334 13.3333 3.57334V2.74001V1.90667ZM9.41074 9.65075C9.08531 9.97619 9.08531 10.5038 9.41074 10.8293C9.73618 11.1547 10.2638 11.1547 10.5893 10.8293L10 10.24L9.41074 9.65075ZM17.4546 2.96751L16.7121 3.34583L16.7121 3.34583L17.4546 2.96751ZM17.2725 2.78542L16.8942 3.52793V3.52793L17.2725 2.78542ZM10 5.24001C10.4602 5.24001 10.8333 4.86691 10.8333 4.40667C10.8333 3.94643 10.4602 3.57334 10 3.57334V4.40667V5.24001ZM16.6667 10.24C16.6667 9.77977 16.2936 9.40667 15.8333 9.40667C15.3731 9.40667 15 9.77977 15 10.24H15.8333H16.6667ZM4.32003 17.3767L4.69836 16.6342H4.69836L4.32003 17.3767ZM2.86331 15.92L2.12081 16.2983L2.86331 15.92ZM14.0133 17.3767L13.635 16.6342L14.0133 17.3767ZM15.47 15.92L14.7275 15.5416L15.47 15.92ZM2.86331 6.2267L2.12081 5.84838H2.12081L2.86331 6.2267ZM4.32003 4.76998L3.94171 4.02748H3.94171L4.32003 4.76998ZM17.5 6.90667H18.3333V3.40667H17.5H16.6667V6.90667H17.5ZM16.8333 2.74001V1.90667H13.3333V2.74001V3.57334H16.8333V2.74001ZM17.378 2.86204L16.7887 2.27279L9.41074 9.65075L10 10.24L10.5893 10.8293L17.9672 3.4513L17.378 2.86204ZM17.5 3.40667H18.3333C18.3333 3.30375 18.334 3.17643 18.3249 3.06515C18.315 2.94413 18.2896 2.77081 18.1971 2.58918L17.4546 2.96751L16.7121 3.34583C16.689 3.30056 16.6764 3.26029 16.6697 3.23194C16.6636 3.20622 16.6631 3.19272 16.6638 3.20087C16.6644 3.20933 16.6655 3.22795 16.6661 3.26524C16.6666 3.3025 16.6667 3.34643 16.6667 3.40667H17.5ZM16.8333 2.74001V3.57334C16.8936 3.57334 16.9375 3.57336 16.9748 3.57395C17.0121 3.57453 17.0307 3.57556 17.0391 3.57625C17.0473 3.57691 17.0338 3.57636 17.0081 3.57031C16.9797 3.56363 16.9394 3.55099 16.8942 3.52793L17.2725 2.78542L17.6508 2.04291C17.4692 1.95037 17.2959 1.925 17.1749 1.91512C17.0636 1.90602 16.9363 1.90667 16.8333 1.90667V2.74001ZM17.4546 2.96751L18.1971 2.58919C18.1372 2.47159 18.0594 2.36497 17.9672 2.27279L17.378 2.86204L16.7887 3.4513C16.758 3.42058 16.7321 3.38503 16.7121 3.34583L17.4546 2.96751ZM17.378 2.86204L17.9672 2.27279C17.875 2.18061 17.7684 2.10283 17.6508 2.04291L17.2725 2.78542L16.8942 3.52793C16.855 3.50795 16.8194 3.48202 16.7887 3.4513L17.378 2.86204ZM10.5 17.74V16.9067H7.83333V17.74V18.5733H10.5V17.74ZM2.5 12.4067H3.33333V9.74001H2.5H1.66667V12.4067H2.5ZM7.83333 4.40667V5.24001H10V4.40667V3.57334H7.83333V4.40667ZM15.8333 10.24H15V12.4067H15.8333H16.6667V10.24H15.8333ZM7.83333 17.74V16.9067C6.88616 16.9067 6.2259 16.906 5.71187 16.864C5.20756 16.8228 4.91782 16.746 4.69836 16.6342L4.32003 17.3767L3.94171 18.1192C4.43528 18.3707 4.96877 18.4755 5.57615 18.5252C6.17379 18.574 6.91366 18.5733 7.83333 18.5733V17.74ZM2.5 12.4067H1.66667C1.66667 13.3263 1.66602 14.0662 1.71485 14.6639C1.76447 15.2712 1.86932 15.8047 2.12081 16.2983L2.86331 15.92L3.60582 15.5416C3.494 15.3222 3.41718 15.0324 3.37598 14.5281C3.33398 14.0141 3.33333 13.3538 3.33333 12.4067H2.5ZM4.32003 17.3767L4.69836 16.6342C4.22795 16.3945 3.8455 16.0121 3.60582 15.5416L2.86331 15.92L2.12081 16.2983C2.52028 17.0823 3.1577 17.7197 3.94171 18.1192L4.32003 17.3767ZM10.5 17.74V18.5733C11.4197 18.5733 12.1595 18.574 12.7572 18.5252C13.3646 18.4755 13.8981 18.3707 14.3916 18.1192L14.0133 17.3767L13.635 16.6342C13.4155 16.746 13.1258 16.8228 12.6215 16.864C12.1074 16.906 11.4472 16.9067 10.5 16.9067V17.74ZM15.8333 12.4067H15C15 13.3538 14.9994 14.0141 14.9574 14.5281C14.9162 15.0324 14.8393 15.3222 14.7275 15.5416L15.47 15.92L16.2125 16.2983C16.464 15.8047 16.5689 15.2712 16.6185 14.6639C16.6673 14.0662 16.6667 13.3263 16.6667 12.4067H15.8333ZM14.0133 17.3767L14.3916 18.1192C15.1756 17.7197 15.8131 17.0823 16.2125 16.2983L15.47 15.92L14.7275 15.5416C14.4878 16.0121 14.1054 16.3945 13.635 16.6342L14.0133 17.3767ZM2.5 9.74001H3.33333C3.33333 8.79283 3.33398 8.13257 3.37598 7.61854C3.41718 7.11423 3.494 6.82449 3.60582 6.60503L2.86331 6.2267L2.12081 5.84838C1.86932 6.34195 1.76447 6.87544 1.71485 7.48282C1.66602 8.08047 1.66667 8.82034 1.66667 9.74001H2.5ZM7.83333 4.40667V3.57334C6.91366 3.57334 6.17379 3.57269 5.57615 3.62152C4.96877 3.67114 4.43528 3.77599 3.94171 4.02748L4.32003 4.76998L4.69836 5.51249C4.91782 5.40067 5.20756 5.32386 5.71187 5.28265C6.2259 5.24065 6.88616 5.24001 7.83333 5.24001V4.40667ZM2.86331 6.2267L3.60582 6.60503C3.8455 6.13462 4.22795 5.75217 4.69836 5.51249L4.32003 4.76998L3.94171 4.02748C3.1577 4.42695 2.52028 5.06437 2.12081 5.84838L2.86331 6.2267Z" fill="#363636"/>
</svg>
