<svg width="18" height="18" viewBox="0 0 18 18" fill="none" xmlns="http://www.w3.org/2000/svg">
<path d="M1.69455 10.7045C1.56728 10.1569 1.5 9.58633 1.5 9C1.5 8.41367 1.56728 7.84306 1.69455 7.29545M7.63636 1.62367C8.07856 1.54244 8.53432 1.5 9 1.5C13.1421 1.5 16.5 4.85786 16.5 9C16.5 13.1421 13.1421 16.5 9 16.5C8.53432 16.5 8.07856 16.4576 7.63636 16.3763M5.25 2.50337C4.22702 3.09513 3.35678 3.92158 2.71291 4.90909M2.71291 13.0909C3.35678 14.0784 4.22702 14.9049 5.25 15.4966M9 12.0073V8.25732M9 6.00732V5.99982" stroke="#066EFF" stroke-width="1.5" stroke-linecap="round"/>
</svg>
