<svg width="20" height="21" viewBox="0 0 20 21" fill="none" xmlns="http://www.w3.org/2000/svg">
<path d="M3.33325 4.98995C2.91904 4.98995 2.58325 5.32574 2.58325 5.73995C2.58325 6.15416 2.91904 6.48995 3.33325 6.48995V5.73995V4.98995ZM16.6666 6.48995C17.0808 6.48995 17.4166 6.15416 17.4166 5.73995C17.4166 5.32574 17.0808 4.98995 16.6666 4.98995V5.73995V6.48995ZM5.91659 5.73995C5.91659 6.15416 6.25237 6.48995 6.66659 6.48995C7.0808 6.48995 7.41658 6.15416 7.41658 5.73995H6.66659H5.91659ZM12.5833 5.73995C12.5833 6.15416 12.919 6.48995 13.3333 6.48995C13.7475 6.48995 14.0833 6.15416 14.0833 5.73995H13.3333H12.5833ZM15.8333 5.73995L15.0833 5.73325L14.9996 15.1023L15.7496 15.109L16.4996 15.1157L16.5832 5.74665L15.8333 5.73995ZM11.7498 19.0733V18.3233H8.16659V19.0733V19.8233H11.7498V19.0733ZM4.16659 5.73995H3.41659V15.0733H4.16659H4.91659V5.73995H4.16659ZM3.33325 5.73995V6.48995H4.16659V5.73995V4.98995H3.33325V5.73995ZM4.16659 5.73995V6.48995H15.8333V5.73995V4.98995H4.16659V5.73995ZM15.8333 5.73995V6.48995H16.6666V5.73995V4.98995H15.8333V5.73995ZM6.66659 5.36958H7.41658C7.41658 4.228 8.4877 3.15662 9.99992 3.15662V2.40662V1.65662C7.83024 1.65662 5.91659 3.23836 5.91659 5.36958H6.66659ZM9.99992 2.40662V3.15662C11.5121 3.15662 12.5833 4.228 12.5833 5.36958H13.3333H14.0833C14.0833 3.23836 12.1696 1.65662 9.99992 1.65662V2.40662ZM6.66659 5.36958H5.91659V5.73995H6.66659H7.41658V5.36958H6.66659ZM13.3333 5.36958H12.5833V5.73995H13.3333H14.0833V5.36958H13.3333ZM8.16659 19.0733V18.3233C6.37166 18.3233 4.91659 16.8682 4.91659 15.0733H4.16659H3.41659C3.41659 17.6966 5.54324 19.8233 8.16659 19.8233V19.0733ZM15.7496 15.109L14.9996 15.1023C14.9837 16.8858 13.5334 18.3233 11.7498 18.3233V19.0733V19.8233C14.3566 19.8233 16.4763 17.7224 16.4996 15.1157L15.7496 15.109Z" fill="#FF2323"/>
</svg>
