<svg width="20" height="20" viewBox="0 0 20 20" fill="none" xmlns="http://www.w3.org/2000/svg">
<path d="M9.68734 9.68747H10.3123M9.68734 10.3125H10.3123M3.854 9.68747H4.479M3.854 10.3125H4.479M15.5207 9.68747H16.1457M15.5207 10.3125H16.1457M10.8334 10C10.8334 10.4603 10.4603 10.8334 10 10.8334C9.5398 10.8334 9.16671 10.4603 9.16671 10C9.16671 9.53978 9.5398 9.16669 10 9.16669C10.4603 9.16669 10.8334 9.53978 10.8334 10ZM5.00004 10C5.00004 10.4603 4.62694 10.8334 4.16671 10.8334C3.70647 10.8334 3.33337 10.4603 3.33337 10C3.33337 9.53978 3.70647 9.16669 4.16671 9.16669C4.62694 9.16669 5.00004 9.53978 5.00004 10ZM16.6667 10C16.6667 10.4603 16.2936 10.8334 15.8334 10.8334C15.3731 10.8334 15 10.4603 15 10C15 9.53978 15.3731 9.16669 15.8334 9.16669C16.2936 9.16669 16.6667 9.53978 16.6667 10Z" stroke="#363636" stroke-width="1.66667" stroke-linecap="round"/>
</svg>
