<svg width="20" height="21" viewBox="0 0 20 21" fill="none" xmlns="http://www.w3.org/2000/svg">
<path d="M3.33325 6.5733V14.9066M14.1666 4.0733H5.83325M16.6666 6.5733V14.9066M14.1666 17.4066H5.83325M7.49992 13.24L8.2142 11.5733M8.2142 11.5733L9.61694 8.30025C9.76125 7.96354 10.2386 7.96354 10.3829 8.30025L11.7856 11.5733M8.2142 11.5733H11.7856M11.7856 11.5733L12.4999 13.24M2.16659 6.5733H4.49992C4.96663 6.5733 5.19998 6.5733 5.37824 6.48247C5.53505 6.40258 5.66253 6.2751 5.74242 6.11829C5.83325 5.94004 5.83325 5.70668 5.83325 5.23997V2.90664C5.83325 2.43993 5.83325 2.20657 5.74242 2.02831C5.66253 1.87151 5.53505 1.74403 5.37824 1.66413C5.19998 1.5733 4.96663 1.5733 4.49992 1.5733H2.16659C1.69987 1.5733 1.46652 1.5733 1.28826 1.66413C1.13146 1.74403 1.00397 1.87151 0.92408 2.02831C0.833252 2.20657 0.833252 2.43993 0.833252 2.90664V5.23997C0.833252 5.70668 0.833252 5.94004 0.92408 6.11829C1.00397 6.2751 1.13146 6.40258 1.28826 6.48247C1.46652 6.5733 1.69987 6.5733 2.16659 6.5733ZM2.16659 19.9066H4.49992C4.96663 19.9066 5.19998 19.9066 5.37824 19.8158C5.53505 19.7359 5.66253 19.6084 5.74242 19.4516C5.83325 19.2734 5.83325 19.04 5.83325 18.5733V16.24C5.83325 15.7733 5.83325 15.5399 5.74242 15.3616C5.66253 15.2048 5.53505 15.0774 5.37824 14.9975C5.19998 14.9066 4.96663 14.9066 4.49992 14.9066H2.16659C1.69987 14.9066 1.46652 14.9066 1.28826 14.9975C1.13146 15.0774 1.00397 15.2048 0.92408 15.3616C0.833252 15.5399 0.833252 15.7733 0.833252 16.24V18.5733C0.833252 19.04 0.833252 19.2734 0.92408 19.4516C1.00397 19.6084 1.13146 19.7359 1.28826 19.8158C1.46652 19.9066 1.69987 19.9066 2.16659 19.9066ZM15.4999 6.5733H17.8333C18.3 6.5733 18.5333 6.5733 18.7116 6.48247C18.8684 6.40258 18.9959 6.2751 19.0758 6.11829C19.1666 5.94004 19.1666 5.70668 19.1666 5.23997V2.90664C19.1666 2.43993 19.1666 2.20657 19.0758 2.02831C18.9959 1.87151 18.8684 1.74403 18.7116 1.66413C18.5333 1.5733 18.3 1.5733 17.8333 1.5733H15.4999C15.0332 1.5733 14.7999 1.5733 14.6216 1.66413C14.4648 1.74403 14.3373 1.87151 14.2574 2.02831C14.1666 2.20657 14.1666 2.43993 14.1666 2.90664V5.23997C14.1666 5.70668 14.1666 5.94004 14.2574 6.11829C14.3373 6.2751 14.4648 6.40258 14.6216 6.48247C14.7999 6.5733 15.0332 6.5733 15.4999 6.5733ZM15.4999 19.9066H17.8333C18.3 19.9066 18.5333 19.9066 18.7116 19.8158C18.8684 19.7359 18.9959 19.6084 19.0758 19.4516C19.1666 19.2734 19.1666 19.04 19.1666 18.5733V16.24C19.1666 15.7733 19.1666 15.5399 19.0758 15.3616C18.9959 15.2048 18.8684 15.0774 18.7116 14.9975C18.5333 14.9066 18.3 14.9066 17.8333 14.9066H15.4999C15.0332 14.9066 14.7999 14.9066 14.6216 14.9975C14.4648 15.0774 14.3373 15.2048 14.2574 15.3616C14.1666 15.5399 14.1666 15.7733 14.1666 16.24V18.5733C14.1666 19.04 14.1666 19.2734 14.2574 19.4516C14.3373 19.6084 14.4648 19.7359 14.6216 19.8158C14.7999 19.9066 15.0332 19.9066 15.4999 19.9066Z" stroke="#363636" stroke-width="1.5" stroke-linecap="round"/>
</svg>
