<svg width="106" height="98" viewBox="0 0 106 98" fill="none" xmlns="http://www.w3.org/2000/svg">
<path d="M66.6301 30.0498C66.6301 34.6398 65.2101 37.7498 62.3601 39.3698L61.6401 39.7298L53.9001 43.5998L42.3601 49.3698C45.2101 47.7498 46.6301 44.6398 46.6301 40.0498C46.6301 39.9298 46.6301 39.8198 46.6201 39.6998C46.5901 37.4098 46.2 35.0798 45.45 32.7098C44.75 30.4498 43.7201 28.1498 42.3601 25.8098C41.2401 23.8798 40.04 22.1698 38.75 20.6498C36.74 18.2698 34.5201 16.3898 32.0901 14.9798C28.4401 12.8698 25.2701 12.3998 22.5801 13.5798L41.8301 3.94982C44.6701 2.32982 48.1001 2.66982 52.0901 4.97982C56.0901 7.28982 59.5101 10.8998 62.3601 15.8098C65.2101 20.7198 66.6301 25.4698 66.6301 30.0498Z" stroke="#676767"/>
<path d="M72.1501 58.8698C72.1501 58.8698 72.1001 58.8098 72.0701 58.7798V58.9098M72.1501 58.8698C72.2201 58.9298 72.2801 58.9898 72.3301 59.0598L72.0701 58.9098M72.1501 58.8698L72.0701 58.9098" stroke="#676767"/>
<path d="M61.1699 86.8198V90.1498C61.1699 92.4498 60.46 93.9998 59.03 94.8098C57.61 95.6198 55.9001 95.4498 53.9001 94.2998L10.29 69.1198C8.29004 67.9598 6.58015 66.1598 5.15015 63.6998C3.73015 61.2498 3.02002 58.8698 3.02002 56.5798V53.2398C3.02002 50.8798 3.55011 49.0098 4.61011 47.6398C5.17011 46.9198 5.83009 46.3798 6.59009 46.0398C7.26009 45.7298 8.01008 45.5598 8.83008 45.5498C12.5901 45.5598 16.41 46.1498 20.28 47.3098C21.23 47.5998 22.1901 47.9198 23.1501 48.2698C26.1001 49.3598 29.0801 50.7798 32.0901 52.5098C36.0901 54.8198 40.0299 57.6298 43.9099 60.9498C47.7799 64.2598 51.6001 68.0798 55.3501 72.4098C55.9301 73.0798 56.47 73.7898 56.96 74.5198C58 76.0198 58.8701 77.6398 59.5801 79.3798C60.6401 81.9698 61.1699 84.4498 61.1699 86.8198Z" stroke="#676767"/>
<path d="M91.9199 66.7598C91.7599 67.3198 91.46 67.7198 91.03 67.9598L90.8101 68.0698L80.75 73.0998L71.03 77.9598C71.72 77.5698 72.0701 76.7798 72.0701 75.5998V67.2498L79.3401 71.4498C79.7401 71.6798 80.11 71.8398 80.45 71.9098C81.01 72.0498 81.4999 71.9898 81.9299 71.7498L89.3 68.0598H89.3101L91.9199 66.7598Z" stroke="#676767"/>
<path d="M92.0701 40.5702V48.9102L84.3201 52.7802L72.1501 58.8702C72.1501 58.8702 72.1001 58.8102 72.0701 58.7802V50.5702C72.0701 49.3902 71.72 48.2002 71.03 47.0002C70.33 45.8002 69.4699 44.9002 68.4399 44.3002C68.1299 44.1302 67.8501 44.0002 67.5801 43.9002H67.5701C67.0001 43.7202 66.5001 43.7202 66.0601 43.9102L85.8501 34.0102C86.5401 33.6102 87.4099 33.7102 88.4399 34.3002C89.4699 34.9002 90.33 35.8002 91.03 37.0002C91.72 38.2002 92.0701 39.3902 92.0701 40.5702Z" stroke="#676767"/>
<path d="M46.6301 40.0501C46.6301 44.6401 45.2101 47.7501 42.3601 49.3701C39.5101 50.9901 36.0901 50.6501 32.0901 48.3401C28.8201 46.4601 25.9299 43.6901 23.4299 40.0501C23.0199 39.4601 22.62 38.8401 22.24 38.2001C22.1 37.9801 21.9601 37.7501 21.8301 37.5201C18.9801 32.6001 17.5601 27.8601 17.5601 23.2701C17.5601 18.6801 18.9801 15.5801 21.8301 13.9501L22.5801 13.5801C25.2701 12.4001 28.4401 12.8701 32.0901 14.9801C34.5201 16.3901 36.74 18.2701 38.75 20.6501C40.04 22.1701 41.2401 23.8801 42.3601 25.8101C43.7201 28.1501 44.75 30.4501 45.45 32.7101C46.2 35.0801 46.5901 37.4101 46.6201 39.7001C46.6301 39.8201 46.6301 39.9301 46.6301 40.0501Z" stroke="#676767"/>
<path d="M64.95 45.2202C64.85 45.5502 64.8 45.9402 64.8 46.3802V54.7202L57.53 50.5202C56.6 49.9902 55.8101 49.8502 55.1501 50.1202L59.9099 47.7302L64.95 45.2202Z" stroke="#676767"/>
<path d="M82.98 69.3799C82.98 70.5599 82.6299 71.3499 81.9299 71.7499C81.4999 71.9899 81.01 72.0499 80.45 71.9099C80.11 71.8399 79.7401 71.6799 79.3401 71.4499L72.0701 67.2499V75.5999C72.0701 76.7799 71.72 77.5699 71.03 77.9599C70.33 78.3599 69.4699 78.2599 68.4399 77.6699C67.4099 77.0699 66.5401 76.1699 65.8501 74.9699C65.1501 73.7699 64.8 72.5799 64.8 71.3999V63.0599L57.53 58.8599C56.5 58.2699 55.6399 57.3699 54.9399 56.1699C54.2499 54.9699 53.9001 53.7699 53.9001 52.5899C53.9001 51.4099 54.2499 50.6199 54.9399 50.2199L55.1501 50.1199C55.8101 49.8499 56.6 49.9899 57.53 50.5199L64.8 54.7199V46.3799C64.8 45.9399 64.85 45.5499 64.95 45.2199C65.11 44.6499 65.4101 44.2499 65.8501 44.0099L66.0601 43.9099C66.5001 43.7199 67.0001 43.7199 67.5701 43.8999H67.5801C67.8501 43.9999 68.1299 44.1299 68.4399 44.2999C69.4699 44.8999 70.33 45.7999 71.03 46.9999C71.72 48.1999 72.0701 49.3899 72.0701 50.5699V58.9099L72.3301 59.0599L79.3401 63.1099C80.3701 63.6999 81.2299 64.5999 81.9299 65.7999C82.6299 67.0099 82.98 68.1999 82.98 69.3799Z" stroke="#676767"/>
<path d="M72.1501 58.8701L72.0701 58.9101" stroke="#676767"/>
<path d="M102.98 59.3802C102.98 60.5602 102.63 61.3502 101.93 61.7502L91.9199 66.7502L89.3101 68.0602H89.3L81.9299 71.7502C82.6299 71.3502 82.98 70.5602 82.98 69.3802C82.98 68.2002 82.6299 67.0102 81.9299 65.8002C81.2299 64.6002 80.3701 63.7002 79.3401 63.1102L72.3301 59.0602C72.2801 58.9902 72.2201 58.9302 72.1501 58.8702L84.3201 52.7802L92.0701 48.9102L99.3401 53.1102C100.37 53.7002 101.23 54.6002 101.93 55.8002C102.63 57.0102 102.98 58.2002 102.98 59.3802Z" stroke="#676767"/>
<path d="M81.1699 76.8202V80.1502C81.1699 82.4502 80.46 84.0002 79.03 84.8102L78.5801 85.0302L59.03 94.8102C60.46 94.0002 61.1699 92.4502 61.1699 90.1502V86.8202C61.1699 84.4502 60.6401 81.9702 59.5801 79.3802C58.8701 77.6402 58 76.0202 56.96 74.5202C56.47 73.7902 55.9301 73.0802 55.3501 72.4102C51.6001 68.0802 47.7799 64.2602 43.9099 60.9502C40.0299 57.6302 36.0901 54.8202 32.0901 52.5102C29.0801 50.7802 26.1001 49.3602 23.1501 48.2702C22.1901 47.9202 21.23 47.6002 20.28 47.3102C16.41 46.1502 12.5901 45.5602 8.83008 45.5502C8.01008 45.5602 7.26009 45.7302 6.59009 46.0402L22.24 38.2002C22.62 38.8402 23.0199 39.4602 23.4299 40.0502C25.9299 43.6902 28.8201 46.4602 32.0901 48.3402C36.0901 50.6502 39.5101 50.9902 42.3601 49.3702L53.9001 43.6002C55.9201 44.8402 57.9199 46.2202 59.9099 47.7302L55.1501 50.1202L54.9399 50.2202C54.2499 50.6202 53.9001 51.4102 53.9001 52.5902C53.9001 53.7702 54.2499 54.9702 54.9399 56.1702C55.6399 57.3702 56.5 58.2702 57.53 58.8602L64.8 63.0602V71.4002C64.8 72.5802 65.1501 73.7702 65.8501 74.9702C66.5401 76.1702 67.4099 77.0702 68.4399 77.6702C69.4699 78.2602 70.33 78.3602 71.03 77.9602L80.75 73.1002C81.03 74.3702 81.1699 75.6102 81.1699 76.8202Z" stroke="#676767"/>
</svg>
