<svg width="40" height="19" viewBox="0 0 40 19" fill="none" xmlns="http://www.w3.org/2000/svg">
<path d="M9.11323 18.7051C8.17722 18.7051 7.47845 18.4938 7.01694 18.0713C6.56194 17.6488 6.33443 17.0215 6.33443 16.1895V14.3272H9.59099V15.7118C9.59099 15.9328 9.62024 16.079 9.67874 16.1505C9.74374 16.222 9.877 16.2578 10.0785 16.2578H11.6873V18.7051H9.11323ZM7.98221 15.2633C6.52619 15.2633 5.26841 14.9707 4.20889 14.3857C3.14937 13.7942 2.33361 12.9525 1.7616 11.8604C1.18959 10.7684 0.903584 9.4749 0.903584 7.97987C0.903584 6.47835 1.18959 5.18482 1.7616 4.0993C2.33361 3.01378 3.14937 2.17527 4.20889 1.58376C5.26841 0.992247 6.52619 0.696491 7.98221 0.696491C9.43824 0.696491 10.696 0.992247 11.7555 1.58376C12.815 2.17527 13.6308 3.01378 14.2028 4.0993C14.7748 5.18482 15.0608 6.47835 15.0608 7.97987C15.0608 9.4749 14.7748 10.7684 14.2028 11.8604C13.6308 12.9525 12.815 13.7942 11.7555 14.3857C10.696 14.9707 9.43824 15.2633 7.98221 15.2633ZM7.97246 12.27C8.70047 12.27 9.31799 12.1009 9.82499 11.7629C10.332 11.4249 10.7188 10.9374 10.9853 10.3004C11.2518 9.6569 11.385 8.88339 11.385 7.97987C11.385 7.06986 11.2518 6.29634 10.9853 5.65933C10.7188 5.02232 10.332 4.53481 9.82499 4.1968C9.31799 3.8588 8.70047 3.6898 7.97246 3.6898C7.25745 3.6898 6.64644 3.8588 6.13943 4.1968C5.63242 4.53481 5.24241 5.02232 4.96941 5.65933C4.7029 6.29634 4.56965 7.06986 4.56965 7.97987C4.56965 8.88339 4.7029 9.6569 4.96941 10.3004C5.24241 10.9374 5.63242 11.4249 6.13943 11.7629C6.64644 12.1009 7.25745 12.27 7.97246 12.27ZM21.5881 15.2633C20.5416 15.2633 19.5893 15.0845 18.7313 14.727C17.8798 14.3695 17.1908 13.8495 16.6643 13.167C16.1443 12.478 15.8583 11.6492 15.8063 10.6807L19.1993 9.6959C19.2123 10.6644 19.4236 11.3827 19.8331 11.8507C20.2426 12.3122 20.7951 12.543 21.4906 12.543C22.0886 12.543 22.5826 12.3837 22.9726 12.0652C23.3691 11.7402 23.5674 11.2657 23.5674 10.6417C23.5674 10.3232 23.4926 10.0177 23.3431 9.72515C23.1936 9.43265 22.9401 9.1954 22.5826 9.01339C22.2251 8.82489 21.7246 8.73064 21.0811 8.73064H20.1841V6.43935H21.4029C21.9814 6.43935 22.4266 6.29309 22.7386 6.00059C23.0506 5.70808 23.2066 5.34733 23.2066 4.91832C23.2066 4.50881 23.0669 4.15455 22.7874 3.85555C22.5079 3.55654 22.0724 3.40704 21.4809 3.40704C20.9023 3.40704 20.4473 3.55979 20.1158 3.8653C19.7843 4.1708 19.5958 4.68756 19.5503 5.41558L16.245 4.55756C16.297 3.92055 16.5473 3.30629 16.9958 2.71478C17.4443 2.12327 18.0715 1.63901 18.8776 1.262C19.6836 0.884995 20.6456 0.696491 21.7636 0.696491C22.6736 0.696491 23.5024 0.839494 24.2499 1.1255C24.9974 1.405 25.5922 1.82751 26.0342 2.39302C26.4827 2.95203 26.707 3.64754 26.707 4.47956C26.707 4.94107 26.616 5.38958 26.4339 5.82508C26.2584 6.25409 25.9659 6.62135 25.5564 6.92685C25.1469 7.22586 24.5847 7.41436 23.8697 7.49236C24.9552 7.65487 25.7709 8.04487 26.3169 8.66239C26.8695 9.2734 27.1457 10.0307 27.1457 10.9342C27.1457 11.6752 26.993 12.3187 26.6875 12.8647C26.3819 13.4107 25.9659 13.8625 25.4394 14.22C24.9129 14.571 24.3182 14.831 23.6551 15C22.9921 15.1755 22.3031 15.2633 21.5881 15.2633Z" fill="#066EFF"/>
<path d="M27.5011 15L31.4889 9.54965L27.7644 4.46981H31.5669L33.712 7.75562L35.6718 4.46981H39.5036L35.6718 9.84216L39.5523 15H35.701L33.478 11.5582L31.3232 15H27.5011Z" fill="#D56BFF"/>
</svg>
