<svg width="28" height="28" viewBox="0 0 28 28" fill="none" xmlns="http://www.w3.org/2000/svg">
<path d="M13.9999 28C12.1614 28 10.3409 27.6379 8.64232 26.9343C6.94377 26.2307 5.40042 25.1995 4.1004 23.8995C2.80038 22.5995 1.76915 21.0561 1.06558 19.3576C0.362012 17.659 -0.000107504 15.8385 -0.000107423 14C-0.000107343 12.1615 0.362014 10.341 1.06558 8.64243C1.76915 6.94387 2.80038 5.40052 4.1004 4.1005C5.40042 2.80048 6.94377 1.76925 8.64233 1.06569C10.3409 0.36212 12.1614 -8.5305e-07 13.9999 -6.11959e-07L13.9999 6.71646C13.0434 6.71646 12.0963 6.90486 11.2126 7.27089C10.3289 7.63692 9.52599 8.17342 8.84965 8.84976C8.17332 9.5261 7.63681 10.329 7.27078 11.2127C6.90475 12.0964 6.71636 13.0435 6.71636 14C6.71636 14.9565 6.90475 15.9036 7.27078 16.7873C7.63681 17.671 8.17331 18.4739 8.84965 19.1502C9.52599 19.8266 10.3289 20.3631 11.2126 20.7291C12.0963 21.0951 13.0434 21.2835 13.9999 21.2835L13.9999 28Z" fill="#066EFF"/>
<mask id="path-2-inside-1_413_4603" fill="white">
<path d="M13.9999 -6.11959e-07C17.7129 -1.25054e-07 21.2739 1.475 23.8994 4.10051C26.5249 6.72602 27.9999 10.287 27.9999 14L21.2834 14C21.2834 12.0683 20.5161 10.2157 19.1501 8.84976C17.7842 7.48383 15.9316 6.71646 13.9999 6.71646L13.9999 -6.11959e-07Z"/>
</mask>
<path d="M13.9999 -6.11959e-07C17.7129 -1.25054e-07 21.2739 1.475 23.8994 4.10051C26.5249 6.72602 27.9999 10.287 27.9999 14L21.2834 14C21.2834 12.0683 20.5161 10.2157 19.1501 8.84976C17.7842 7.48383 15.9316 6.71646 13.9999 6.71646L13.9999 -6.11959e-07Z" fill="url(#paint0_linear_413_4603)" stroke="#066EFF" stroke-width="0.4" mask="url(#path-2-inside-1_413_4603)"/>
<rect x="15.0686" y="15.0687" width="6.46563" height="6.46563" fill="#066EFF"/>
<rect x="21.5342" y="21.5345" width="6.46563" height="6.46563" rx="3.23282" fill="#D56BFF"/>
<defs>
<linearGradient id="paint0_linear_413_4603" x1="13.9999" y1="6.64625" x2="27.9999" y2="6.64625" gradientUnits="userSpaceOnUse">
<stop stop-color="#066EFF"/>
<stop offset="1" stop-color="white"/>
</linearGradient>
</defs>
</svg>
