<svg width="110" height="110" viewBox="0 0 110 110" fill="none" xmlns="http://www.w3.org/2000/svg">
<g filter="url(#filter0_d_110_4367)">
<rect x="38.9915" y="34.7302" width="32" height="32" rx="16" fill="#F4F4F6"/>
<rect x="38.5704" y="34.3092" width="32.8421" height="32.8421" rx="16.4211" stroke="#0059FF" stroke-width="0.842105" stroke-linejoin="round" stroke-dasharray="0.84 0.84"/>
<path opacity="0.5" d="M55.1359 45.1933C55.2426 45.1933 55.2959 45.2466 55.2959 45.3533V46.0413C55.2959 46.148 55.2426 46.2013 55.1359 46.2013H51.9999C51.9572 46.2013 51.9359 46.2226 51.9359 46.2653V56.2333C51.9359 56.34 51.8826 56.3933 51.7759 56.3933H50.9599C50.8532 56.3933 50.7999 56.34 50.7999 56.2333V46.2653C50.7999 46.2226 50.7786 46.2013 50.7359 46.2013H47.7279C47.6212 46.2013 47.5679 46.148 47.5679 46.0413V45.3533C47.5679 45.2466 47.6212 45.1933 47.7279 45.1933H55.1359ZM58.7523 56.5213C57.9843 56.5213 57.3229 56.324 56.7683 55.9293C56.2136 55.5346 55.8296 54.9906 55.6163 54.2973C55.4669 53.8066 55.3923 53.1506 55.3923 52.3293C55.3923 51.508 55.4669 50.8573 55.6163 50.3773C55.8189 49.6946 56.1976 49.156 56.7523 48.7613C57.3069 48.3666 57.9789 48.1693 58.7683 48.1693C59.5256 48.1693 60.1763 48.3666 60.7203 48.7613C61.2749 49.156 61.6536 49.6893 61.8563 50.3613C62.0056 50.82 62.0803 51.476 62.0803 52.3293C62.0803 53.1933 62.0056 53.8493 61.8563 54.2973C61.6536 54.9906 61.2749 55.5346 60.7203 55.9293C60.1763 56.324 59.5203 56.5213 58.7523 56.5213ZM58.7523 55.5293C59.2643 55.5293 59.7016 55.3906 60.0643 55.1133C60.4269 54.8253 60.6723 54.4413 60.8003 53.9613C60.8963 53.5773 60.9443 53.0386 60.9443 52.3453C60.9443 51.6413 60.9016 51.1026 60.8163 50.7293C60.6883 50.2493 60.4376 49.8706 60.0643 49.5933C59.7016 49.3053 59.2589 49.1613 58.7363 49.1613C58.2136 49.1613 57.7709 49.3053 57.4083 49.5933C57.0456 49.8706 56.8003 50.2493 56.6723 50.7293C56.5869 51.1026 56.5443 51.6413 56.5443 52.3453C56.5443 53.0493 56.5869 53.588 56.6723 53.9613C56.7896 54.4413 57.0296 54.8253 57.3923 55.1133C57.7656 55.3906 58.2189 55.5293 58.7523 55.5293Z" fill="#676767"/>
</g>
<defs>
<filter id="filter0_d_110_4367" x="0.629639" y="0.368408" width="108.724" height="108.724" filterUnits="userSpaceOnUse" color-interpolation-filters="sRGB">
<feFlood flood-opacity="0" result="BackgroundImageFix"/>
<feColorMatrix in="SourceAlpha" type="matrix" values="0 0 0 0 0 0 0 0 0 0 0 0 0 0 0 0 0 0 127 0" result="hardAlpha"/>
<feOffset dy="4"/>
<feGaussianBlur stdDeviation="16.75"/>
<feComposite in2="hardAlpha" operator="out"/>
<feColorMatrix type="matrix" values="0 0 0 0 0.101771 0 0 0 0 0.124044 0 0 0 0 0.435866 0 0 0 0.29 0"/>
<feBlend mode="normal" in2="BackgroundImageFix" result="effect1_dropShadow_110_4367"/>
<feBlend mode="normal" in="SourceGraphic" in2="effect1_dropShadow_110_4367" result="shape"/>
</filter>
</defs>
</svg>
