<svg width="39" height="39" viewBox="0 0 39 39" fill="none" xmlns="http://www.w3.org/2000/svg">
<path d="M38.7469 19.5C38.7469 24.6046 36.7191 29.5001 33.1096 33.1096C29.5001 36.7191 24.6046 38.7469 19.5 38.7469C14.3954 38.7469 9.49985 36.7192 5.89035 33.1096C2.28085 29.5001 0.253051 24.6046 0.253051 19.5L9.48672 19.5C9.48672 22.1557 10.5417 24.7026 12.4195 26.5805C14.2974 28.4583 16.8443 29.5133 19.5 29.5133C22.1557 29.5133 24.7026 28.4583 26.5805 26.5805C28.4583 24.7026 29.5133 22.1557 29.5133 19.5L38.7469 19.5Z" fill="#2470FF"/>
<rect x="32.2213" y="14.8168" width="8.88884" height="8.88884" transform="rotate(180 32.2213 14.8168)" fill="#2470FF"/>
<rect x="14.3381" y="14.8168" width="8.88884" height="8.88884" rx="4.44442" transform="rotate(180 14.3381 14.8168)" fill="#D56AFF"/>
</svg>
