<svg width="21" height="20" viewBox="0 0 21 20" fill="none" xmlns="http://www.w3.org/2000/svg">
<path d="M14.557 16.5556C13.3786 17.2865 11.9886 17.7084 10.5 17.7084C6.24279 17.7084 2.79166 14.2573 2.79166 10.0001C2.79166 5.74289 6.24279 2.29175 10.5 2.29175C14.7572 2.29175 18.2083 5.74289 18.2083 10.0001C18.2083 11.6498 17.3885 13.3536 15.4762 13.1797C13.9031 13.0367 12.7707 11.6049 12.9941 10.0411L13.4355 7.0024M12.9479 10.4005C12.6917 12.2235 11.1909 13.5196 9.59571 13.2954C8.00056 13.0713 6.91513 11.4117 7.17134 9.58863C7.42755 7.7656 8.92838 6.46947 10.5235 6.69366C12.1187 6.91784 13.2041 8.57744 12.9479 10.4005Z" stroke="#363636" stroke-width="1.5" stroke-linecap="round"/>
</svg>
