<svg width="23" height="24" viewBox="0 0 23 24" fill="none" xmlns="http://www.w3.org/2000/svg">
<path d="M8.05628 18.6487C8.05628 18.7633 8.02601 18.8541 7.96979 18.919C7.94168 18.9493 7.91357 18.9752 7.88114 18.9947L7.8552 19.0076C7.82709 19.0228 7.79898 19.0314 7.76655 19.0358C7.68655 19.0487 7.58925 19.0206 7.47466 18.9558L2.25517 15.9417C1.78383 15.6693 1.37951 15.2412 1.04221 14.6617C0.704914 14.0801 0.538424 13.5201 0.538424 12.9774V12.1882C0.538424 11.6455 0.659518 11.2066 0.90168 10.8714C1.01844 10.7114 1.15681 10.5882 1.31681 10.5039L1.33411 10.4952C1.50276 10.4109 1.69519 10.3677 1.91141 10.3698C2.71357 10.3698 3.55249 10.4909 4.42601 10.7244C4.57087 10.7633 4.71788 10.8066 4.8649 10.852C5.59571 11.0812 6.33736 11.399 7.08979 11.8055C7.20438 11.8725 7.30382 11.959 7.39031 12.0649C7.47463 12.173 7.54817 12.292 7.60438 12.4239C7.66276 12.5558 7.69736 12.6876 7.71249 12.8174C7.72547 12.9493 7.71898 13.0725 7.69087 13.1871C7.60438 13.4682 7.53952 13.7622 7.49628 14.0758C7.48763 14.1471 7.47898 14.2206 7.47033 14.2941C7.44655 14.5363 7.43355 14.7828 7.43355 15.0358C7.43355 15.5287 7.47898 16.0455 7.57195 16.5839C7.66493 17.1223 7.80547 17.6736 7.99141 18.2422C8.03466 18.3979 8.05628 18.5341 8.05628 18.6487Z" stroke="#363636" stroke-width="0.5"/>
<path d="M12.0172 11.025C11.9307 11.3061 11.8659 11.6002 11.8226 11.9137C11.7859 12.1861 11.7664 12.4629 11.7621 12.7483L9.97831 13.6391L9.94804 13.6542C9.85723 13.6975 9.78372 13.7645 9.72317 13.8553C9.61507 14.0153 9.56101 14.225 9.56101 14.4888V17.9634C9.56101 18.024 9.56317 18.0845 9.56966 18.145L7.88318 18.9948C7.91561 18.9753 7.94372 18.9494 7.97182 18.9191C8.02804 18.8542 8.05831 18.7634 8.05831 18.6488C8.05831 18.5342 8.03669 18.398 7.99345 18.2423C7.8075 17.6737 7.66696 17.1223 7.57399 16.584C7.48101 16.0456 7.43561 15.5288 7.43561 15.0358C7.43561 14.7829 7.44858 14.5364 7.47236 14.2942C7.48101 14.2207 7.48966 14.1472 7.49831 14.0758C7.54155 13.7623 7.60642 13.4683 7.6929 13.1872C7.72101 13.0726 7.7275 12.9494 7.71453 12.8175C7.69939 12.6877 7.6648 12.5558 7.60642 12.424C7.5502 12.2921 7.47669 12.1731 7.39236 12.065C7.30588 11.9591 7.20642 11.8726 7.09182 11.8056C6.33939 11.3991 5.59777 11.0813 4.86696 10.8521C4.71993 10.8067 4.5729 10.7634 4.42804 10.7245C3.55453 10.491 2.71561 10.3721 1.91345 10.3699C1.69724 10.3677 1.50479 10.411 1.33615 10.4953L5.07885 8.6272C5.11128 8.68125 5.14372 8.7353 5.17831 8.7872C5.80966 9.78612 6.55777 10.5342 7.41399 11.0294C8.35885 11.5764 9.1675 11.6564 9.83993 11.2737L11.9178 10.2337C11.9178 10.2337 11.9264 10.2531 11.9307 10.2618C11.9891 10.3937 12.0237 10.5256 12.0389 10.6553C12.0518 10.7872 12.0453 10.9104 12.0172 11.025Z" stroke="#363636" stroke-width="0.5"/>
<path d="M10.8478 9.07037C10.8478 9.16551 10.8478 9.26064 10.8391 9.34929C10.7851 10.2833 10.4521 10.9233 9.83803 11.2736C9.16559 11.6563 8.35695 11.5763 7.41208 11.0293C6.55586 10.5342 5.80776 9.78605 5.17641 8.78713C5.14181 8.73524 5.10938 8.68118 5.07695 8.62713C5.04451 8.57524 5.01424 8.52334 4.98397 8.47145C4.31154 7.31037 3.97424 6.18605 3.97424 5.1028C3.97424 4.01956 4.31154 3.28443 4.98397 2.89956L5.15262 2.81524C5.79046 2.53416 6.54505 2.64226 7.41208 3.14172C7.75154 3.33848 8.07368 3.57416 8.37638 3.84875C8.91909 4.33956 9.40776 4.95794 9.83803 5.70172C10.3245 6.54064 10.6359 7.3601 10.7699 8.15794C10.8218 8.46497 10.8478 8.76767 10.8478 9.07037Z" stroke="#363636" stroke-width="0.5"/>
<path d="M15.1719 6.90818C15.1719 7.99359 14.8368 8.72656 14.1622 9.11142L13.9935 9.19575L11.9157 10.2336L9.83786 11.2736C10.4519 10.9233 10.7849 10.2833 10.8389 9.34926C10.8454 9.26061 10.8476 9.16548 10.8476 9.07034C10.8476 8.76764 10.8216 8.46494 10.7697 8.15791C10.6357 7.36007 10.3243 6.54061 9.83786 5.70169C9.40759 4.95791 8.91894 4.33953 8.37623 3.84872C8.07353 3.57413 7.75137 3.33845 7.41191 3.14169C6.54488 2.64223 5.79029 2.53415 5.15245 2.81523L9.30813 0.737371C9.98056 0.354668 10.7914 0.434666 11.7362 0.979531C12.6811 1.52656 13.4897 2.37845 14.1622 3.53953C14.8368 4.70061 15.1719 5.82494 15.1719 6.90818Z" stroke="#363636" stroke-width="0.5"/>
<path d="M17.1223 18.1276C17.118 18.1168 17.1137 18.1038 17.1072 18.093C16.9947 17.8184 16.8412 17.5611 16.651 17.3254L15.9331 16.4303L15.1742 15.4854L14.0715 14.1103C14.011 14.0346 13.9483 13.9654 13.8856 13.8984C13.8445 13.853 13.8034 13.8119 13.7601 13.7709C13.6542 13.6671 13.5418 13.5827 13.4272 13.5179C13.3126 13.4509 13.198 13.4011 13.0834 13.3687C12.9688 13.3341 12.8629 13.3298 12.7612 13.3536L11.7796 13.4444L10.1839 13.5914C10.1104 13.5979 10.0412 13.613 9.97853 13.639L9.94826 13.6541C9.85745 13.6973 9.78393 13.7644 9.72339 13.8552C9.61528 14.0152 9.56123 14.2249 9.56123 14.4887V17.9633C9.56123 18.0238 9.56339 18.0843 9.56988 18.1449C9.58934 18.3525 9.63907 18.5665 9.72339 18.7849C9.82934 19.0682 9.98501 19.3341 10.1839 19.5806L12.7612 22.7956C12.8629 22.934 12.9688 23.0551 13.0834 23.1524C13.198 23.2518 13.3126 23.334 13.4272 23.401C13.5418 23.468 13.6542 23.5113 13.7601 23.5307C13.8683 23.5524 13.972 23.5589 14.0715 23.5502L16.651 23.3145C16.7353 23.308 16.8131 23.2886 16.8823 23.2562L16.9256 23.2345C17.0012 23.1913 17.0661 23.1329 17.1223 23.0572C17.2369 22.9016 17.2953 22.6918 17.2953 22.428V18.9535C17.2953 18.6898 17.2369 18.4152 17.1223 18.1276ZM12.7829 21.1071L10.8499 18.6833V15.9979L11.2153 16.4541L11.7039 17.0682L12.3829 17.9179L12.7829 18.4195V21.1071ZM13.4272 17.6822L13.2629 17.4768L12.3764 16.3676L11.4099 15.1611L12.0434 15.1092L13.4272 14.9968L13.8856 15.5633L14.8088 16.7049L14.9753 16.9082L15.4466 17.4919L14.6293 17.5698L13.4272 17.6822ZM16.0045 21.6605L14.0693 21.8248V19.1395L15.7537 18.973L16.0045 18.9492V21.6605Z" stroke="#363636" stroke-width="0.5"/>
<path d="M16.0043 20.8585V21.6606L14.0714 21.8249L16.0043 20.8585Z" stroke="#363636" stroke-width="0.5"/>
<path d="M14.9729 16.9082L14.3589 17.2174L13.427 17.6822L13.2627 17.4768L12.374 16.3676L11.4075 15.1611L12.041 15.1093L13.427 14.9968L13.8832 15.5633L14.8064 16.7049L14.9729 16.9082Z" stroke="#363636" stroke-width="0.5"/>
<path d="M12.7827 18.4196V21.1072L10.8475 18.6834L12.3805 17.918L12.7827 18.4196Z" stroke="#363636" stroke-width="0.5"/>
<path d="M12.3805 17.9179L10.8475 18.6833V15.9979L11.2151 16.4541L11.7038 17.0682L12.3805 17.9179Z" stroke="#363636" stroke-width="0.5"/>
<path d="M16.0043 18.9493V20.8585L14.0714 21.8251V19.1396L15.7557 18.9731L16.0043 18.9493Z" stroke="#363636" stroke-width="0.5"/>
<path d="M15.4464 17.492L14.6291 17.5698L13.4269 17.6822L14.3588 17.2174L14.9729 16.9082L15.4464 17.492Z" stroke="#363636" stroke-width="0.5"/>
<path d="M21.6174 16.7914V20.266C21.6174 20.5298 21.559 20.7396 21.4445 20.8952C21.3904 20.9709 21.3234 21.0293 21.2499 21.0704L21.1785 21.1049L16.9234 23.2346C16.999 23.1913 17.0639 23.133 17.1201 23.0573C17.2347 22.9016 17.2931 22.6919 17.2931 22.4281V18.9536C17.2931 18.6898 17.2347 18.4152 17.1201 18.1276C17.1158 18.1168 17.1115 18.1039 17.105 18.0931C16.9926 17.8185 16.839 17.5612 16.6488 17.3255L15.9309 16.4304L15.172 15.4855L14.0693 14.1104C14.0088 14.0347 13.9461 13.9655 13.8834 13.8985C13.8423 13.853 13.8012 13.812 13.758 13.7709C13.652 13.6671 13.5396 13.5828 13.425 13.5179C13.3104 13.4509 13.1958 13.4012 13.0812 13.3687C12.9666 13.3341 12.8607 13.3298 12.759 13.3536L11.7774 13.4444L10.1817 13.5914C10.1082 13.5979 10.039 13.6131 9.97634 13.639L11.7601 12.7482L14.2336 11.5114C14.3136 11.4639 14.4044 11.4379 14.5061 11.4293L17.0834 11.1914C17.185 11.1677 17.2909 11.172 17.4055 11.2066C17.5201 11.239 17.6347 11.2887 17.7493 11.3558C17.8639 11.4206 17.9763 11.505 18.0823 11.6087C18.1904 11.7125 18.2942 11.825 18.3936 11.9482L20.9731 15.1633C21.172 15.4098 21.3299 15.6779 21.4445 15.9655C21.559 16.253 21.6174 16.5276 21.6174 16.7914Z" stroke="#363636" stroke-width="0.5"/>
</svg>
