<svg width="24" height="24" viewBox="0 0 24 24" fill="none" xmlns="http://www.w3.org/2000/svg">
<path d="M14.3382 23.5851C14.3971 23.5703 14.4477 23.5451 14.4898 23.5093L14.3382 23.5851Z" stroke="#363636" stroke-width="0.5"/>
<path d="M10.1256 7.67139L10.0308 7.71981C10.0603 7.70928 10.0982 7.7156 10.1445 7.74086C10.1361 7.7177 10.1319 7.69454 10.1256 7.67139Z" stroke="#363636" stroke-width="0.5"/>
<path d="M15.9298 11.947C15.7971 11.3133 15.6035 10.6733 15.3466 10.0291C15.1108 9.43122 14.8203 8.82911 14.475 8.2249C14.4519 8.1828 14.4287 8.13859 14.4035 8.09648C14.1908 7.72806 13.9676 7.37859 13.7382 7.04596C13.5298 6.7449 13.315 6.46069 13.0939 6.18911C12.275 5.18701 11.3592 4.38069 10.3508 3.76806C10.2877 3.72806 10.2245 3.69017 10.1613 3.65438C9.63712 3.35122 9.1382 3.12806 8.66451 2.98701C7.78241 2.72175 6.98872 2.73438 6.28135 3.0228L6.2687 3.02911C6.1487 3.07754 6.03293 3.13438 5.91925 3.19964C4.76135 3.86069 4.1824 5.14701 4.1824 7.0628C4.1824 7.93648 4.3129 8.83332 4.57395 9.75543C4.83501 10.6796 5.20342 11.5765 5.67711 12.4502V17.8986C5.67711 18.1828 5.78031 18.4712 5.98451 18.7617C6.19083 19.0523 6.4182 19.2186 6.66662 19.2628L10.1613 19.9512L13.6561 23.2987C13.9045 23.5429 14.1319 23.6376 14.3382 23.585L14.4898 23.5092C14.595 23.425 14.6477 23.2797 14.6477 23.0776V17.6291C15.1192 17.3028 15.4876 16.8291 15.7487 16.2081C15.9887 15.6396 16.1192 14.9639 16.1382 14.1828C16.1424 14.1112 16.1424 14.0396 16.1424 13.9681C16.1424 13.2986 16.0708 12.6249 15.9298 11.947ZM14.6182 13.6923C14.5129 14.8017 14.0856 15.5702 13.3382 15.9954C12.4666 16.4923 11.4076 16.3807 10.1613 15.6628C10.0687 15.6102 9.97815 15.5533 9.88763 15.4965C8.75921 14.7765 7.79083 13.7196 6.98451 12.3281C6.11293 10.8228 5.67711 9.35543 5.67711 7.92596C5.67711 6.49648 6.11293 5.53438 6.98451 5.03543C7.40977 4.79332 7.88135 4.69438 8.39714 4.7428C8.86662 4.78701 9.37398 4.95122 9.91714 5.23543C9.99714 5.27754 10.0792 5.32175 10.1613 5.37017C10.6582 5.65648 11.1277 6.00596 11.5635 6.41859C11.6856 6.53227 11.8056 6.65227 11.9192 6.77648C12.4098 7.29438 12.8582 7.89438 13.2645 8.5828C13.2898 8.6228 13.315 8.6649 13.3382 8.7049C13.3508 8.72806 13.3655 8.75122 13.3782 8.77438C13.6434 9.23964 13.8687 9.7028 14.0476 10.1596C14.1087 10.307 14.1613 10.4502 14.2119 10.5954C14.4498 11.2881 14.5887 11.9723 14.6308 12.6481C14.6434 12.8017 14.6477 12.9533 14.6477 13.1049C14.6477 13.3112 14.6392 13.507 14.6182 13.6923Z" stroke="#363636" stroke-width="0.5"/>
<path d="M14.6182 13.6924C14.5129 14.8019 14.0856 15.5703 13.3382 15.9955C12.4666 16.4924 11.4076 16.3808 10.1613 15.6629C10.0687 15.6103 9.97815 15.5534 9.88763 15.4966C8.75921 14.7766 7.79083 13.7198 6.98451 12.3282C6.11293 10.8229 5.67711 9.35554 5.67711 7.92607C5.67711 6.49659 6.11293 5.53449 6.98451 5.03554C7.40977 4.79343 7.88135 4.69449 8.39714 4.74291C8.86662 4.78712 9.37398 4.95133 9.91714 5.23554C9.89609 5.4208 9.88763 5.61659 9.88763 5.8208C9.88763 6.27343 9.93188 6.73028 10.0203 7.19133L8.82662 7.78712L7.76767 8.31765L7.75925 8.32186C7.7382 8.33028 7.72346 8.35133 7.71293 8.38501C7.68977 8.46291 7.70662 8.55554 7.76977 8.66291L9.07714 10.6187L8.59291 12.1408C8.56765 12.225 8.59293 12.3219 8.66662 12.4292C8.74241 12.5366 8.81607 12.5766 8.89186 12.5492L9.88763 12.2503L10.1613 12.1682L11.4139 14.0061C11.4876 14.1198 11.5634 14.1661 11.6371 14.145L11.6792 14.124L13.6961 13.1155C13.915 13.2755 14.1403 13.4229 14.3719 13.5576C14.454 13.6061 14.536 13.6503 14.6182 13.6924Z" stroke="#363636" stroke-width="0.5"/>
<path d="M14.6308 12.6478L13.6961 13.1152L11.6792 14.1236C11.7213 14.0921 11.7319 14.031 11.7129 13.9426L11.2266 11.8605L12.1108 11.57L12.5529 11.4247L14.2119 10.5952C14.4498 11.2878 14.5887 11.9721 14.6308 12.6478Z" stroke="#363636" stroke-width="0.5"/>
<path d="M12.5529 11.425L12.1108 11.5702L11.2266 11.8608L11.7129 13.9429C11.7319 14.0313 11.7213 14.0923 11.6792 14.1239L11.6371 14.145C11.5634 14.166 11.4876 14.1197 11.414 14.006L10.1613 12.1681L9.88764 12.2502L8.89185 12.5492C8.81606 12.5766 8.74242 12.5366 8.66663 12.4292C8.59294 12.3218 8.56766 12.225 8.59292 12.1408L9.07713 10.6186L7.76978 8.66286C7.70663 8.55549 7.68976 8.46286 7.71292 8.38496C7.72345 8.35128 7.73818 8.33023 7.75924 8.3218L7.76768 8.31762C7.79715 8.30709 7.83501 8.31549 7.88132 8.34286L9.32343 9.17235L9.48976 9.26917L9.97397 7.7913C9.9845 7.7534 10.0035 7.73025 10.0308 7.71972C10.0603 7.70919 10.0982 7.71549 10.1445 7.74075C10.1508 7.74286 10.155 7.74496 10.1613 7.74917C10.2603 7.80812 10.3235 7.89235 10.3487 8.00814L10.5929 9.02707L10.835 10.046L11.2245 10.2713L12.4224 10.9639C12.5108 11.0144 12.5698 11.0945 12.6013 11.206C12.6308 11.3155 12.6161 11.3892 12.5529 11.425Z" stroke="#363636" stroke-width="0.5"/>
<path d="M13.3782 8.77426L13.1719 8.87742L11.0392 9.94479L10.835 10.0458L10.5929 9.02689L10.3487 8.00795C10.3235 7.89216 10.2603 7.80795 10.1613 7.749C10.155 7.74479 10.1508 7.74268 10.1445 7.74058C10.136 7.71742 10.1319 7.69426 10.1256 7.6711L11.9192 6.77637C12.4098 7.29426 12.8582 7.89426 13.2645 8.58268C13.2898 8.62268 13.315 8.66479 13.3382 8.70479C13.3508 8.72795 13.3655 8.7511 13.3782 8.77426Z" stroke="#363636" stroke-width="0.5"/>
<path d="M12.6014 11.206C12.5698 11.0944 12.5108 11.0144 12.4224 10.9639L11.2245 10.2713L10.835 10.046L11.0392 9.94494L13.1719 8.87757L13.3782 8.77441C13.6434 9.23968 13.8687 9.70284 14.0477 10.1597C14.1087 10.307 14.1613 10.4502 14.2119 10.5955L12.5529 11.4249C12.6161 11.3892 12.6308 11.3155 12.6014 11.206Z" stroke="#363636" stroke-width="0.5"/>
<path d="M11.9192 6.77635L10.1256 7.67109L10.0308 7.71951C10.0035 7.73004 9.98451 7.75319 9.97399 7.79109L9.48978 9.26898L9.32344 9.17214L7.88131 8.34267C7.835 8.3153 7.79714 8.30688 7.76767 8.3174L8.82662 7.78898L10.0203 7.19109L11.5635 6.41846C11.6856 6.53214 11.8056 6.65214 11.9192 6.77635Z" stroke="#363636" stroke-width="0.5"/>
<path d="M18.8582 15.5239V20.9723C18.8582 21.2566 18.755 21.4272 18.5487 21.4798L14.4898 23.5093C14.595 23.4251 14.6477 23.2798 14.6477 23.0777V17.6292L18.8582 15.5239Z" stroke="#363636" stroke-width="0.5"/>
<path d="M20.3529 11.8627C20.3529 12.7342 20.2203 13.4816 19.9592 14.1026C19.6982 14.7237 19.3298 15.1974 18.8582 15.5237L14.6477 17.629C15.1193 17.3026 15.4877 16.829 15.7487 16.2079C15.9887 15.6395 16.1193 14.9637 16.1382 14.1826C16.1424 14.1111 16.1424 14.0395 16.1424 13.9679C16.1424 13.2984 16.0708 12.6247 15.9298 11.9468C15.7971 11.3132 15.6035 10.6732 15.3466 10.029C15.1108 9.43108 14.8203 8.82897 14.475 8.22476C14.4519 8.18266 14.4287 8.13843 14.4035 8.09632C14.1908 7.7279 13.9677 7.37843 13.7382 7.04579C13.5298 6.74474 13.315 6.46053 13.0939 6.18895C12.275 5.18685 11.3593 4.38053 10.3508 3.7679C10.2877 3.7279 10.2245 3.69003 10.1613 3.65424C9.63713 3.35108 9.1382 3.1279 8.66451 2.98685C7.78241 2.72158 6.98873 2.73424 6.28136 3.02266L10.1298 1.09423C11.2898 0.433176 12.7024 0.584755 14.3719 1.54897C16.0413 2.51318 17.4561 3.99316 18.614 5.99106C19.7719 7.99106 20.3529 9.94687 20.3529 11.8627Z" stroke="#363636" stroke-width="0.5"/>
</svg>
