<svg width="22" height="24" viewBox="0 0 22 24" fill="none" xmlns="http://www.w3.org/2000/svg">
<g clip-path="url(#clip0_413_4700)">
<path d="M15.7336 12.5951C15.6736 12.2847 15.5474 11.964 15.3591 11.6392C15.1626 11.2999 14.9391 11.0247 14.6867 10.8116C14.6784 10.8033 14.6702 10.7971 14.6619 10.7909C14.5605 10.7061 14.455 10.6337 14.3453 10.5695L12.9094 9.73988C12.9094 8.59988 12.5598 7.42677 11.8584 6.2185C11.5108 5.6185 11.126 5.09712 10.706 4.65229C10.2798 4.20333 9.81634 3.83505 9.31772 3.54539C8.44048 3.0385 7.67705 2.91229 7.0274 3.1647C7.00257 3.17505 6.97774 3.18539 6.95291 3.19781L6.77705 3.2847C6.07774 3.68401 5.72807 4.45367 5.72807 5.59367L4.29015 4.76402C3.93636 4.55919 3.62807 4.5116 3.36531 4.61919L3.27636 4.66264C2.99498 4.82402 2.85428 5.13022 2.85428 5.58333V15.473C2.85428 15.9261 2.99498 16.3957 3.27636 16.8799C3.55774 17.3661 3.89498 17.7219 4.29015 17.9495L14.3453 23.7551C14.7405 23.9826 15.0777 24.0157 15.3591 23.8564C15.6405 23.695 15.7812 23.3888 15.7812 22.9357V13.0461C15.7812 12.8971 15.7667 12.7482 15.7336 12.5951ZM7.79289 5.03505C8.21082 4.79505 8.71979 4.84884 9.31772 5.19436C9.36324 5.22126 9.40878 5.24815 9.45429 5.27919C9.89291 5.5585 10.2798 5.94539 10.617 6.43781C10.6957 6.5516 10.7722 6.6716 10.8446 6.79574C11.2625 7.51988 11.4736 8.22333 11.4736 8.91022L10.2302 8.19229L7.16395 6.42333C7.16395 5.73643 7.37289 5.27298 7.79289 5.03505ZM11.7053 14.6288C10.9874 14.8875 10.1867 14.7613 9.29912 14.2482C8.44671 13.7557 7.6791 13.0026 6.9922 11.9806C6.96531 11.9413 6.93841 11.9019 6.91151 11.8606C6.206 10.7806 5.8522 9.82057 5.8522 8.98264C5.8522 8.74884 5.92255 8.58953 6.0591 8.5047C6.19772 8.41988 6.3674 8.43643 6.57016 8.55229C6.7336 8.64746 6.87427 8.78195 6.9922 8.96195C6.99634 8.96608 6.99843 8.97229 7.00257 8.97643C7.12257 9.16264 7.21151 9.40264 7.27151 9.6985C7.39151 10.2902 7.64602 10.855 8.03498 11.3971C8.42395 11.9371 8.84602 12.3385 9.29912 12.6013C9.75429 12.864 10.1743 12.9468 10.557 12.8537C10.6377 12.833 10.7122 12.8061 10.7805 12.7688L10.826 12.7461C11.0639 12.6075 11.2295 12.3737 11.3288 12.0426C11.3888 11.8295 11.4839 11.6992 11.6163 11.6516C11.7488 11.604 11.8977 11.6288 12.0653 11.7261C12.177 11.7902 12.2763 11.873 12.3653 11.9744C12.4419 12.0571 12.5081 12.1544 12.5681 12.2619C12.6984 12.504 12.7646 12.7399 12.7646 12.9737C12.7771 13.8178 12.4233 14.3702 11.7053 14.6288Z" stroke="#363636" stroke-width="0.5"/>
<path d="M12.7647 12.9738C12.7771 13.8179 12.4233 14.3703 11.7054 14.6289C10.9874 14.8876 10.1867 14.7614 9.29916 14.2483C8.44675 13.7558 7.67916 13.0027 6.99226 11.9807C6.96537 11.9414 6.93847 11.902 6.91157 11.8607C6.20606 10.7807 5.85226 9.82066 5.85226 8.98273C5.85226 8.74894 5.92261 8.58963 6.05916 8.5048C6.19778 8.41997 6.36746 8.43653 6.57022 8.55239C6.73366 8.64756 6.87433 8.78204 6.99226 8.96204C6.9964 8.96618 6.99847 8.97239 7.00261 8.97653C7.12261 9.16273 7.21155 9.40273 7.27155 9.6986C7.39155 10.2903 7.64606 10.8551 8.03502 11.3972C8.42399 11.9372 8.84606 12.3386 9.29916 12.6014C9.75433 12.8641 10.1743 12.9469 10.5571 12.8538C10.6378 12.8331 10.7123 12.8062 10.7805 12.7689L10.8261 12.7462L12.3653 11.9745C12.4419 12.0572 12.5081 12.1545 12.5681 12.262C12.6985 12.5041 12.7647 12.74 12.7647 12.9738Z" stroke="#363636" stroke-width="0.5"/>
<path d="M12.3653 11.9744L10.826 12.7461C11.064 12.6075 11.2295 12.3737 11.3288 12.0427C11.3888 11.8296 11.484 11.6992 11.6164 11.6516C11.7488 11.604 11.8978 11.6289 12.0654 11.7261C12.1771 11.7902 12.2764 11.873 12.3653 11.9744Z" stroke="#363636" stroke-width="0.5"/>
<path d="M8.19009 2.5791L7.0294 3.15841L6.95285 3.19772L6.77701 3.28462C6.07769 3.68393 5.72802 4.45359 5.72802 5.59359L4.2901 4.76393C3.9363 4.5591 3.62801 4.51152 3.36525 4.6191L7.41423 2.59359C7.63767 2.46738 7.89629 2.46117 8.19009 2.5791Z" stroke="#363636" stroke-width="0.5"/>
<path d="M9.45429 5.27926L7.16394 6.4234C7.16394 5.7365 7.37289 5.27305 7.79289 5.03512C8.21082 4.79512 8.71978 4.84892 9.31771 5.19443C9.36323 5.22133 9.40877 5.24823 9.45429 5.27926Z" stroke="#363636" stroke-width="0.5"/>
<path d="M11.4736 8.91033L10.2301 8.1924L7.16394 6.42343L9.45429 5.2793C9.89291 5.55861 10.2798 5.9455 10.617 6.43792C10.6956 6.55171 10.7722 6.67171 10.8446 6.79585C11.2625 7.51999 11.4736 8.22343 11.4736 8.91033Z" stroke="#363636" stroke-width="0.5"/>
<path d="M19.919 10.9771V20.8668C19.919 21.3198 19.7783 21.626 19.497 21.7874L19.408 21.8309L15.359 23.8564C15.6404 23.695 15.7811 23.3888 15.7811 22.9357V13.0461C15.7811 12.8971 15.7666 12.7481 15.7335 12.595C15.6735 12.2847 15.5473 11.964 15.359 11.6392C15.1625 11.2999 14.939 11.0247 14.6866 10.8116C14.6783 10.8033 14.6701 10.7971 14.6618 10.7909C14.5604 10.7061 14.4549 10.6337 14.3452 10.5695L12.9094 9.73986L17.0473 7.6709L18.4832 8.50055C18.8783 8.72814 19.2156 9.084 19.497 9.57021C19.7783 10.0543 19.919 10.524 19.919 10.9771Z" stroke="#363636" stroke-width="0.5"/>
<path d="M17.0473 7.67085L12.9094 9.73981C12.9094 8.59981 12.5598 7.42671 11.8584 6.21843C11.5108 5.61843 11.126 5.09706 10.706 4.65223C10.2798 4.20326 9.81631 3.83499 9.31769 3.54533C8.44045 3.03843 7.677 2.91223 7.02734 3.16464C7.02734 3.16257 7.02736 3.1605 7.02943 3.15843L8.1901 2.57912L10.915 1.21568C11.6163 0.816374 12.4625 0.903271 13.4556 1.47637C14.4487 2.05155 15.297 2.94119 15.9963 4.14947C16.6977 5.35775 17.0473 6.53085 17.0473 7.67085Z" stroke="#363636" stroke-width="0.5"/>
</g>
<defs>
<clipPath id="clip0_413_4700">
<rect width="22" height="24" fill="white"/>
</clipPath>
</defs>
</svg>
