<svg width="22" height="24" viewBox="0 0 22 24" fill="none" xmlns="http://www.w3.org/2000/svg">
<g clip-path="url(#clip0_413_4619)">
<path d="M12.1005 16.2629V16.2881L12.1257 16.2766L12.1005 16.2629ZM5.76228 15.6481C5.51086 15.5018 5.30057 15.2846 5.13143 14.9921C4.96228 14.6995 4.87774 14.4092 4.87774 14.1212V12.0938L0.457142 9.54065V12.5349C0.457142 12.9052 0.534858 13.2938 0.688001 13.6961C0.84343 14.0984 1.0606 14.4732 1.34174 14.8206L7.52912 22.4778V16.6675L5.76228 15.6481Z" stroke="#363636" stroke-width="0.5"/>
<path d="M10.1829 12.1121V16.1715L9.41255 15.7258L7.68459 14.7292L6.64688 14.1281V10.0709L7.70285 10.6812L9.44916 11.6892L10.1829 12.1121Z" stroke="#363636" stroke-width="0.5"/>
<path d="M20.944 16.4434V19.4376C20.944 19.8079 20.8663 20.1074 20.7109 20.3291C20.624 20.4548 20.5189 20.5485 20.3931 20.6102L15.8606 22.8754C15.968 22.8136 16.0617 22.7268 16.1394 22.6148C16.2949 22.3931 16.3726 22.0936 16.3726 21.7234V18.7291L20.944 16.4434Z" stroke="#363636" stroke-width="0.5"/>
<path d="M9.4125 15.7257L8.75652 16.0525L7.52907 16.6674L5.76222 15.648C5.51079 15.5017 5.3005 15.2845 5.13136 14.992C4.96221 14.6994 4.87767 14.4091 4.87767 14.1211V12.0937L5.43995 11.8125L6.64681 11.2091V14.128L7.68455 14.7291L9.4125 15.7257Z" stroke="#363636" stroke-width="0.5"/>
<path d="M11.7417 11.3325L11.2183 11.5954L10.1829 12.112L9.44916 11.6891L7.70285 10.6811L6.64688 10.0708L8.39314 9.19769L9.29826 8.74512V9.57255L11.0674 10.5943C11.12 10.624 11.1703 10.6583 11.2183 10.6948C11.4034 10.832 11.5611 11.0171 11.696 11.248C11.712 11.2754 11.728 11.3051 11.7417 11.3325Z" stroke="#363636" stroke-width="0.5"/>
<path d="M13.008 14.7589L12.1005 15.2138L10.1828 16.1715V12.1121L11.2182 11.5955L11.7417 11.3326C11.8811 11.5955 11.952 11.8584 11.952 12.1189V14.1486L13.008 14.7589Z" stroke="#363636" stroke-width="0.5"/>
<path d="M16.3725 18.7292V21.7235C16.3725 22.0937 16.2948 22.3932 16.1394 22.6149C16.0617 22.7269 15.968 22.8137 15.8605 22.8755H15.8583C15.7508 22.9372 15.6274 22.976 15.488 22.9875L9.29821 23.4972V17.6892L10.7611 18.5326L11.0674 18.7109C11.3165 18.8549 11.5268 18.8777 11.6959 18.7817C11.8651 18.6857 11.952 18.4937 11.952 18.2057V16.176L12.1005 16.2629V16.288L12.1257 16.2766L13.8696 17.2846L16.3725 18.7292Z" stroke="#363636" stroke-width="0.5"/>
<path d="M20.944 16.4434L16.3726 18.7291L13.8697 17.2845L12.1257 16.2765L12.1005 16.2628L11.952 16.176L12.1005 16.1028L13.8354 15.2343L16.1097 16.5485L16.3726 16.6994L19.0606 15.3554L20.944 16.4434Z" stroke="#363636" stroke-width="0.5"/>
<path d="M11.952 16.3634V18.2057C11.952 18.4937 11.8651 18.6857 11.6959 18.7817C11.5268 18.8777 11.3165 18.8548 11.0674 18.7108L10.7611 18.5325L9.29821 17.6891L9.85369 17.4125L11.952 16.3634Z" stroke="#363636" stroke-width="0.5"/>
<path d="M16.3725 13.7075V16.6995L16.1096 16.5486L13.8354 15.2344L13.008 14.7589L11.952 14.1486V12.1189C11.952 11.8584 11.8811 11.5955 11.7417 11.3326C11.728 11.3052 11.7119 11.2755 11.6959 11.2481C11.5611 11.0172 11.4034 10.8321 11.2182 10.6949C11.1702 10.6584 11.1199 10.6241 11.0674 10.5944L9.29821 9.57265V3.76465L10.6377 5.42179L11.5451 6.54408L13.7119 9.22522L14.3588 10.0252L14.7542 10.5144L15.488 11.4218C15.7668 11.7692 15.984 12.1441 16.1394 12.5464C16.2948 12.9486 16.3725 13.3349 16.3725 13.7075Z" stroke="#363636" stroke-width="0.5"/>
<path d="M7.52912 2.7428V8.5508L5.76228 7.53137C5.584 7.42851 5.42631 7.38508 5.29145 7.40566C5.23431 7.41251 5.18171 7.4308 5.13143 7.45823C5.09257 7.48108 5.05828 7.50623 5.02857 7.53823C4.928 7.64794 4.87774 7.81251 4.87774 8.03423V10.0639L2.34057 8.5988L0.457142 7.5108V4.5188C0.457142 4.14623 0.534858 3.84908 0.688001 3.62508C0.772573 3.50394 0.873165 3.41251 0.994308 3.3508L1.05145 3.32337C1.14059 3.28451 1.2366 3.26165 1.34174 3.25251L5.02857 2.94851L7.52912 2.7428Z" stroke="#363636" stroke-width="0.5"/>
<path d="M12.1005 0.457153L7.52912 2.74287L5.02857 2.94858L1.34174 3.25258C1.23659 3.26172 1.14059 3.28458 1.05145 3.32344L5.53142 1.08344L5.55888 1.06972C5.66402 1.01258 5.78059 0.978296 5.91316 0.966868L12.1005 0.457153Z" stroke="#363636" stroke-width="0.5"/>
<path d="M20.944 11.4217V14.4137L16.3725 16.6995V13.7075C16.3725 13.3349 16.2948 12.9486 16.1394 12.5463C15.984 12.144 15.7668 11.7692 15.488 11.4217L14.7542 10.5143L14.3588 10.0252L13.7119 9.22516L11.5451 6.54402L10.6377 5.42174L9.29821 3.76459L13.8696 1.47888L20.0594 9.13602C20.3382 9.48345 20.5554 9.85831 20.7108 10.2606C20.8663 10.6629 20.944 11.0492 20.944 11.4217Z" stroke="#363636" stroke-width="0.5"/>
<path d="M12.1005 15.2137V16.1029L11.952 16.176V16.3635L9.85373 17.4126L9.29826 17.6892V21.5932L7.52912 22.4777V16.6675L8.75659 16.0526L9.41255 15.7257L10.1829 16.1715L12.1005 15.2137Z" stroke="#363636" stroke-width="0.5"/>
<path d="M12.1005 0.457153V2.36344L9.29826 3.76458V7.6663L7.52912 8.55087V2.74287L12.1005 0.457153Z" stroke="#363636" stroke-width="0.5"/>
<path d="M9.29821 7.66631V7.85373L7.56569 8.72002L4.87767 10.064V8.03431C4.87767 7.81259 4.92795 7.64802 5.02852 7.53831C5.05824 7.50631 5.0925 7.48116 5.13136 7.45831C5.18164 7.43088 5.23426 7.41259 5.2914 7.40574C5.42626 7.38516 5.58393 7.42859 5.76221 7.53145L7.52907 8.55088L9.29821 7.66631Z" stroke="#363636" stroke-width="0.5"/>
<path d="M9.29826 7.85364V8.74507L8.39314 9.19764L6.64688 10.0708V11.2091L5.44 11.8125L4.87774 12.0936L0.457142 9.54049L2.34057 8.59878L4.87774 10.0639L7.56574 8.71992L9.29826 7.85364Z" stroke="#363636" stroke-width="0.5"/>
</g>
<defs>
<clipPath id="clip0_413_4619">
<rect width="21.4857" height="24" fill="white"/>
</clipPath>
</defs>
</svg>
