<svg width="27" height="24" viewBox="0 0 27 24" fill="none" xmlns="http://www.w3.org/2000/svg">
<path d="M20.2276 17.1533C20.2276 17.8841 20.1547 18.5447 20.0037 19.1353C19.7961 19.9712 19.4402 20.667 18.9359 21.2225C18.6258 21.5623 18.2806 21.8292 17.8977 22.0234C17.2209 22.3659 16.4281 22.471 15.522 22.3389C15.193 22.293 14.8748 22.1097 14.5674 21.7888C14.3462 21.5623 14.1764 21.3007 14.0523 21.0067C14.0011 20.8908 13.9579 20.7667 13.9229 20.64C13.8096 20.2274 13.8042 19.8877 13.9121 19.6207C13.9202 19.5991 13.9282 19.5775 13.939 19.556C14.0091 19.4103 14.1089 19.3079 14.233 19.2539C14.3462 19.2054 14.4757 19.1919 14.6294 19.2135C14.9179 19.254 15.193 19.2593 15.4491 19.2243C16.01 19.1542 16.4901 18.9034 16.8892 18.4719C17.1076 18.24 17.2829 17.9704 17.4177 17.6603C17.6496 17.129 17.7656 16.4899 17.7656 15.7321C17.7656 14.8773 17.6199 14.009 17.3287 13.1218C17.0914 12.3964 16.7543 11.6575 16.3202 10.9106C16.0343 10.4144 15.7296 9.95869 15.4087 9.54071C14.651 8.55913 13.7961 7.79329 12.8469 7.24588C12.4155 6.99779 12.0056 6.81708 11.6091 6.70113C11.0429 6.53664 10.5116 6.50697 10.0182 6.61753C9.2739 6.78203 8.72106 7.21082 8.36241 7.90116C8.31657 7.99015 8.27342 8.0845 8.23297 8.18158C8.17634 8.3218 8.10081 8.42967 8.00643 8.50248H8.00373C7.89317 8.58607 7.76106 8.62116 7.60466 8.61037C7.55072 8.60767 7.49412 8.59686 7.43749 8.58338C7.22446 8.52944 7.00333 8.40003 6.77412 8.1897C6.73906 8.16003 6.70128 8.12498 6.66623 8.08722C6.33724 7.75824 6.10805 7.37801 5.97322 6.94655C5.84109 6.51779 5.83569 6.14832 5.95704 5.8436C6.39659 4.78113 7.07614 4.05843 7.99569 3.67821C8.19255 3.59731 8.40016 3.52989 8.61859 3.48135C9.43027 3.29529 10.3121 3.36543 11.2667 3.69172C11.7709 3.86161 12.2995 4.10697 12.8469 4.42248C13.184 4.61664 13.5157 4.82967 13.8366 5.06158C15.4627 6.22652 16.8757 7.84183 18.073 9.91015C19.3862 12.1699 20.0981 14.3784 20.2087 16.5384C20.2222 16.7434 20.2276 16.9483 20.2276 17.1533Z" stroke="#363636" stroke-width="0.5"/>
<path d="M12.507 13.9659L11.6575 16.7246L9.71056 23.0428C9.67011 23.1506 9.61351 23.2261 9.5434 23.2639L9.52182 23.2747C9.41935 23.3232 9.28452 23.3043 9.12542 23.218C8.83958 23.0616 8.64267 22.792 8.5402 22.4037L7.61798 18.6607L3.55955 20.9394C3.21168 21.1362 2.80719 21.1039 2.34605 20.8369C1.88223 20.57 1.47774 20.1358 1.12987 19.5371C0.782006 18.9358 0.606741 18.3749 0.606741 17.8571C0.606741 17.3394 0.782006 16.9834 1.12987 16.7839L5.18831 14.4702L2.39194 11.7951C2.1034 11.512 1.96586 11.2073 1.97665 10.8837C1.98204 10.6922 2.03594 10.5655 2.14111 10.5061L2.18969 10.4819C2.25441 10.4603 2.32988 10.4549 2.42157 10.4711L9.84 12.1969L11.7384 12.6392C11.9649 12.6769 12.1699 12.8522 12.3533 13.1731C12.5394 13.4913 12.5906 13.7556 12.507 13.9659Z" stroke="#363636" stroke-width="0.5"/>
<path d="M8.00365 8.50513L7.99561 8.50782" stroke="#363636" stroke-width="0.5"/>
<path d="M11.6089 6.70119L8.93924 8.03602L8.00616 8.50254C8.10054 8.42973 8.17604 8.32186 8.23267 8.18164C8.27312 8.08456 8.31627 7.99018 8.36211 7.90119C8.72076 7.21085 9.27363 6.78209 10.0179 6.61759C10.5114 6.50703 11.0426 6.5367 11.6089 6.70119Z" stroke="#363636" stroke-width="0.5"/>
<path d="M17.4176 17.6603C17.2828 17.9704 17.1075 18.2401 16.8891 18.472C16.49 18.9034 16.01 19.1542 15.4491 19.2243C15.1929 19.2594 14.9178 19.254 14.6293 19.2135C14.4756 19.192 14.3461 19.2054 14.2329 19.254L15.6621 18.5367L17.4176 17.6603Z" stroke="#363636" stroke-width="0.5"/>
<path d="M14.2329 19.254L14.1871 19.2756" stroke="#363636" stroke-width="0.5"/>
<path d="M17.3285 13.1219L15.662 18.5367L14.2328 19.254C14.1088 19.3079 14.009 19.4104 13.9388 19.556C13.9281 19.5776 13.92 19.5992 13.9119 19.6207C13.8041 19.8877 13.8095 20.2275 13.9227 20.6401C13.9578 20.7668 14.0009 20.8908 14.0522 21.0068L9.5434 23.2639C9.61351 23.2261 9.67011 23.1506 9.71056 23.0428L11.6575 16.7246L12.507 13.9659C12.5906 13.7556 12.5394 13.4913 12.3533 13.1731C12.1699 12.8522 11.9649 12.6769 11.7384 12.6392L9.84 12.1969L2.42157 10.4711C2.32988 10.4549 2.25441 10.4603 2.18969 10.4819L6.77396 8.18972C7.00317 8.40006 7.22429 8.52949 7.43733 8.58343C7.49396 8.59691 7.55056 8.6077 7.60449 8.61039C7.7609 8.62118 7.893 8.58612 8.00357 8.50522H8.00626L8.93935 8.03601L15.4086 9.54073C15.7295 9.95871 16.0342 10.4144 16.32 10.9106C16.7542 11.6576 17.0912 12.3965 17.3285 13.1219Z" stroke="#363636" stroke-width="0.5"/>
<path d="M25.6208 14.4567C25.6208 16.2203 25.1893 17.5767 24.329 18.526C24.0001 18.8873 23.6279 19.1678 23.2181 19.3619L17.8976 22.0235C18.2806 21.8293 18.6257 21.5624 18.9358 21.2226C19.4401 20.6671 19.796 19.9713 20.0036 19.1354C20.1547 18.5448 20.2275 17.8842 20.2275 17.1534C20.2275 16.9484 20.2221 16.7435 20.2086 16.5385C20.098 14.3785 19.3861 12.17 18.0729 9.91022C16.8756 7.84191 15.4626 6.2266 13.8365 5.06166C13.5156 4.82975 13.1839 4.61672 12.8468 4.42256C12.2994 4.10705 11.7709 3.86169 11.2666 3.6918C10.312 3.36551 9.43017 3.29539 8.61848 3.48146C8.40005 3.53 8.19247 3.59739 7.99561 3.67829L13.1488 1.09224C13.4131 0.957409 13.7016 0.854931 14.0117 0.784819C15.2522 0.501673 16.6599 0.814479 18.2401 1.72594C20.2895 2.90975 22.0315 4.73809 23.4661 7.2136C24.9035 9.6891 25.6208 12.1026 25.6208 14.4567Z" stroke="#363636" stroke-width="0.5"/>
</svg>
