<svg width="22" height="24" viewBox="0 0 22 24" fill="none" xmlns="http://www.w3.org/2000/svg">
<path d="M11.9527 8.5329C12.0127 8.51576 12.0663 8.49004 12.1113 8.45361L11.9527 8.5329Z" stroke="#363636" stroke-width="0.5"/>
<path d="M16.4313 17.6508C16.4313 19.0672 16.1892 20.2244 15.7071 21.1244C15.3256 21.8315 14.7942 22.38 14.1149 22.7679C14.0377 22.8129 13.9585 22.8536 13.877 22.8943L13.8492 22.9072C12.662 23.4772 11.2884 23.4386 9.72844 22.7958H9.7263C9.32558 22.6308 8.91416 22.425 8.48987 22.1786V23.1922C8.48987 23.3379 8.44703 23.4322 8.36346 23.4772L8.35489 23.4815C8.32489 23.4965 8.28846 23.505 8.24775 23.5072C8.08489 23.5158 7.93063 23.4086 7.78277 23.19L5.02489 19.2172C4.79132 18.8786 4.67348 18.5401 4.67348 18.2036C4.67348 17.9508 4.73989 17.7751 4.86846 17.6744L5.00987 17.6015L5.02275 17.5972L7.78063 16.8086C7.92848 16.7594 8.08275 16.8322 8.24561 17.0272C8.40632 17.2201 8.48773 17.4193 8.48773 17.6229V18.6344C9.36201 19.1379 10.1506 19.3629 10.8577 19.3072C11.2349 19.2772 11.5884 19.1701 11.9184 18.9815C12.6706 18.5529 13.1249 17.8115 13.2792 16.7572C13.322 16.4829 13.3413 16.1851 13.3413 15.8679C13.3413 15.3108 13.2706 14.7344 13.1313 14.1387C12.992 13.5429 12.7971 12.9537 12.5463 12.3708C12.3856 12.0065 12.3192 11.6786 12.3492 11.3829C12.3684 11.1794 12.4328 11.0337 12.5442 10.9458C12.5656 10.9265 12.5913 10.9094 12.617 10.8944L12.6385 10.8836C12.6642 10.8708 12.6942 10.8601 12.7242 10.8515L12.7413 10.8472L13.4742 10.6522C13.7377 10.5687 14.0335 10.6501 14.357 10.8965C14.6806 11.1429 14.9377 11.4729 15.1284 11.8865C15.5399 12.8508 15.8591 13.8194 16.0884 14.7944C16.2406 15.4479 16.3413 16.0908 16.3906 16.7208C16.4163 17.0336 16.4292 17.3444 16.4292 17.6508H16.4313Z" stroke="#363636" stroke-width="0.5"/>
<path d="M12.3064 7.92648C12.3064 8.1772 12.2421 8.35293 12.1114 8.45365L11.9528 8.53293L9.19493 9.32148C9.04922 9.37077 8.89496 9.29793 8.7321 9.10293C8.57139 8.91008 8.48991 8.71079 8.48991 8.50722V7.49579C8.31848 7.39722 8.14924 7.3072 7.98424 7.23006C6.85924 6.70291 5.88634 6.6772 5.0592 7.14863C4.99491 7.18506 4.93065 7.22579 4.87065 7.26651C4.04779 7.83222 3.63636 8.83291 3.63636 10.2622C3.63636 10.8193 3.70493 11.3958 3.84636 11.9915C3.98565 12.5872 4.18065 13.1765 4.42922 13.7594C4.59208 14.1236 4.65849 14.4515 4.62849 14.7472C4.60491 14.9872 4.51706 15.1479 4.36706 15.2315C4.33277 15.2529 4.2942 15.2679 4.25349 15.2786L3.50348 15.4779C3.23777 15.5615 2.94422 15.4844 2.62065 15.2465C2.29708 15.0086 2.03992 14.6744 1.84921 14.2436C1.42278 13.2708 1.0992 12.3001 0.878487 11.3293C0.657773 10.3565 0.546385 9.40722 0.546385 8.47936C0.546385 5.94865 1.31992 4.24079 2.86277 3.36222C2.98063 3.29365 3.10281 3.23365 3.22496 3.18222C3.93638 2.85865 4.71422 2.75363 5.55636 2.86291C6.45851 2.98077 7.43563 3.34293 8.48991 3.95151V2.93793C8.48991 2.73651 8.57139 2.63148 8.7321 2.62291C8.89496 2.61434 9.04922 2.72151 9.19493 2.94008L10.4035 4.68008L11.9528 6.91291C12.1885 7.25148 12.3064 7.59006 12.3064 7.92648Z" stroke="#363636" stroke-width="0.5"/>
<path d="M12.8314 0.574403L13.0179 0.480103C12.9343 0.484388 12.87 0.516546 12.8314 0.574403Z" stroke="#363636" stroke-width="0.5"/>
<path d="M20.7172 15.5078C20.7172 18.0385 19.9457 19.7464 18.4007 20.625L18.2786 20.6871L18.0836 20.7857L18.0493 20.8007L13.8772 22.8942C13.9586 22.8535 14.0379 22.8128 14.115 22.7678C14.7943 22.38 15.3258 21.8314 15.7072 21.1243C16.1894 20.2243 16.4315 19.0671 16.4315 17.6507C16.4315 17.3443 16.4186 17.0335 16.3929 16.7207C16.3436 16.0907 16.2429 15.4478 16.0907 14.7943C15.8615 13.8193 15.5422 12.8507 15.1307 11.8864C14.94 11.4729 14.6829 11.1429 14.3594 10.8964C14.0358 10.65 13.74 10.5686 13.4765 10.6521L12.7436 10.8471L12.7265 10.8514C12.6965 10.86 12.6665 10.8707 12.6408 10.8835L16.9029 8.75143C16.935 8.73428 16.9715 8.71926 17.0122 8.70855L17.7622 8.50929C18.0257 8.42571 18.3215 8.50714 18.6451 8.75357C18.9686 9 19.2257 9.33 19.4165 9.74357C19.8279 10.7079 20.1472 11.6764 20.3765 12.6514C20.6036 13.6285 20.7172 14.58 20.7172 15.5078Z" stroke="#363636" stroke-width="0.5"/>
<path d="M13.2813 16.7572C13.127 17.8115 12.6727 18.5529 11.9205 18.9815C11.5905 19.17 11.237 19.2772 10.8598 19.3072C10.1527 19.3629 9.36409 19.1379 8.48981 18.6343L9.90197 17.9271L12.7755 16.4915C12.947 16.59 13.1163 16.68 13.2813 16.7572Z" stroke="#363636" stroke-width="0.5"/>
<path d="M12.7755 15.4801V16.4915L9.90197 17.9272L8.48981 18.6344V17.6229C8.48981 17.4193 8.40842 17.2201 8.24771 17.0272C8.08485 16.8322 7.93057 16.7594 7.78271 16.8087L5.02483 17.5972L9.21842 15.4908L9.23124 15.4844C9.25695 15.4715 9.28269 15.4629 9.31054 15.4543L12.0684 14.6658C12.2163 14.6165 12.3706 14.6894 12.5334 14.8844C12.6941 15.0772 12.7755 15.2765 12.7755 15.4801Z" stroke="#363636" stroke-width="0.5"/>
<path d="M8.9142 12.6043C8.89063 12.8464 8.80277 13.0071 8.65063 13.0907L8.61208 13.11L4.36706 15.2314C4.51706 15.1479 4.60491 14.9871 4.62849 14.7471C4.65849 14.4514 4.59208 14.1236 4.42922 13.7593C4.18065 13.1764 3.98565 12.5871 3.84636 11.9914C3.70494 11.3957 3.63636 10.8193 3.63636 10.2621C3.63636 8.83283 4.04779 7.83212 4.87065 7.26641C4.93065 7.22569 4.99491 7.18498 5.0592 7.14855C5.88634 6.67712 6.85924 6.70283 7.98424 7.22998C7.94139 7.50426 7.92208 7.80212 7.92208 8.11926C7.92208 8.67641 7.99065 9.25286 8.13208 9.84857C8.27136 10.4443 8.46636 11.0336 8.71494 11.6164C8.87779 11.9807 8.9442 12.3086 8.9142 12.6043Z" stroke="#363636" stroke-width="0.5"/>
<path d="M16.5921 5.78354C16.5921 6.12211 16.4743 6.32356 16.2386 6.38999L12.1114 8.45356C12.2421 8.35284 12.3064 8.17711 12.3064 7.92639C12.3064 7.58996 12.1886 7.25139 11.9529 6.91282L10.4036 4.67999L9.19498 2.93999C9.04926 2.72141 8.895 2.61425 8.73214 2.62282L11.5671 1.20425L12.8314 0.574267L13.0179 0.479969C13.1807 0.471397 13.335 0.578561 13.4807 0.797133L16.2386 4.76996C16.4743 5.10854 16.5921 5.44711 16.5921 5.78354Z" stroke="#363636" stroke-width="0.5"/>
<path d="M11.5671 1.20436L8.7321 2.62294C8.57139 2.63151 8.48991 2.73653 8.48991 2.93796V3.95151C7.43563 3.34294 6.45851 2.9808 5.55636 2.86294C4.71422 2.75365 3.93639 2.85867 3.22496 3.18225L7.14848 1.21938C8.4042 0.503662 9.87636 0.499363 11.5671 1.20436Z" stroke="#363636" stroke-width="0.5"/>
<path d="M9.72626 22.7956L8.36342 23.477C8.44699 23.432 8.48981 23.3378 8.48981 23.192V22.1785C8.91409 22.4249 9.32554 22.6306 9.72626 22.7956Z" stroke="#363636" stroke-width="0.5"/>
<path d="M5.02494 17.5972L5.01206 17.6015L4.87065 17.6722L4.86851 17.6743" stroke="#363636" stroke-width="0.5"/>
</svg>
