<svg width="23" height="24" viewBox="0 0 23 24" fill="none" xmlns="http://www.w3.org/2000/svg">
<g clip-path="url(#clip0_413_4720)">
<path d="M16.3473 20.6638C16.0547 20.1606 15.7031 19.7901 15.2926 19.5522L10.8126 16.9648C10.4442 16.7543 10.1242 16.7038 9.85048 16.8133L9.75787 16.8596C9.46524 17.0259 9.31785 17.3459 9.31785 17.8175C9.31785 18.289 9.46524 18.7754 9.75787 19.2806C10.0505 19.7838 10.4021 20.1564 10.8126 20.3922L15.2926 22.9797C15.7031 23.2154 16.0547 23.2512 16.3473 23.0849C16.64 22.9186 16.7852 22.5986 16.7852 22.127C16.7852 21.6554 16.64 21.1691 16.3473 20.6638ZM11.3431 19.5964C11.2 19.6785 11.0231 19.6574 10.8126 19.5353C10.6 19.4132 10.4231 19.2301 10.28 18.9817C10.1368 18.7354 10.0652 18.4912 10.0652 18.2469C10.0652 18.0027 10.1368 17.8427 10.28 17.7606C10.4231 17.6806 10.6 17.6996 10.8126 17.8217C11.0231 17.9438 11.2 18.129 11.3431 18.3754C11.4863 18.6217 11.5579 18.868 11.5579 19.1101C11.5579 19.3522 11.4863 19.5143 11.3431 19.5964ZM13.5831 20.8891C13.44 20.9712 13.2631 20.9523 13.0526 20.8302C12.84 20.7059 12.6631 20.5227 12.52 20.2764C12.3768 20.028 12.3052 19.7838 12.3052 19.5417C12.3052 19.2996 12.3768 19.1354 12.52 19.0554C12.6631 18.9733 12.84 18.9943 13.0526 19.1164C13.2631 19.2385 13.44 19.4217 13.5831 19.668C13.7263 19.9164 13.7979 20.1606 13.7979 20.4027C13.7979 20.6448 13.7263 20.8091 13.5831 20.8891ZM15.8231 22.1839C15.68 22.2639 15.5031 22.2449 15.2926 22.1228C15.08 22.0007 14.9031 21.8154 14.76 21.5691C14.6168 21.3228 14.5452 21.0765 14.5452 20.8344C14.5452 20.5922 14.6168 20.4301 14.76 20.348C14.9031 20.2659 15.08 20.2869 15.2926 20.409C15.5031 20.5312 15.68 20.7164 15.8231 20.9628C15.9663 21.2091 16.0379 21.4533 16.0379 21.6976C16.0379 21.9418 15.9663 22.1018 15.8231 22.1839Z" stroke="#363636" stroke-width="0.5"/>
<path d="M11.5578 19.1101C11.5578 19.3522 11.4862 19.5143 11.3431 19.5964C11.1999 19.6785 11.0231 19.6575 10.8125 19.5354C10.5999 19.4133 10.4231 19.2301 10.2799 18.9817C10.1368 18.7354 10.0652 18.4912 10.0652 18.2469C10.0652 18.0027 10.1368 17.8427 10.2799 17.7606C10.4231 17.6806 10.5999 17.6996 10.8125 17.8217C11.0231 17.9438 11.1999 18.1291 11.3431 18.3754C11.4862 18.6217 11.5578 18.868 11.5578 19.1101Z" stroke="#363636" stroke-width="0.5"/>
<path d="M13.7979 20.4029C13.7979 20.6471 13.7263 20.8092 13.5832 20.8892C13.44 20.9713 13.2632 20.9524 13.0527 20.8303C12.84 20.706 12.6632 20.5229 12.52 20.2766C12.3769 20.0281 12.3053 19.7839 12.3053 19.5418C12.3053 19.2997 12.3769 19.1355 12.52 19.0555C12.6632 18.9734 12.84 18.9944 13.0527 19.1165C13.2632 19.2386 13.44 19.4218 13.5832 19.6681C13.7263 19.9165 13.7979 20.1608 13.7979 20.4029Z" stroke="#363636" stroke-width="0.5"/>
<path d="M16.0379 21.6974C16.0379 21.9395 15.9663 22.1016 15.8231 22.1837C15.68 22.2637 15.5031 22.2447 15.2926 22.1226C15.08 22.0005 14.9031 21.8153 14.76 21.5689C14.6168 21.3226 14.5452 21.0763 14.5452 20.8342C14.5452 20.5922 14.6168 20.4301 14.76 20.348C14.9031 20.2659 15.08 20.2869 15.2926 20.409C15.5031 20.5311 15.68 20.7164 15.8231 20.9626C15.9663 21.2089 16.0379 21.4532 16.0379 21.6974Z" stroke="#363636" stroke-width="0.5"/>
<path d="M15.9747 13.6952C15.9221 13.19 15.8316 12.6805 15.7052 12.1689C15.5684 11.6068 15.3873 11.0384 15.16 10.47C14.9157 9.85102 14.621 9.22787 14.2757 8.59839C14.2105 8.4826 14.1452 8.36681 14.0779 8.24892C13.6737 7.54997 13.2421 6.90787 12.7831 6.32471C11.7621 5.01945 10.6063 3.99418 9.31785 3.25102C8.58522 2.82787 7.8968 2.54576 7.25049 2.40471C6.37891 2.21102 5.58733 2.27418 4.87364 2.59418L4.55785 2.75208C3.25259 3.49734 2.59786 4.94155 2.59786 7.0826C2.59786 8.93945 3.09892 10.8552 4.10102 12.8342C5.10314 14.811 6.36206 16.4237 7.88206 17.6721C7.8568 17.5437 7.83996 17.4215 7.83364 17.3037C7.82943 17.1858 7.82522 17.0679 7.82522 16.9542C7.82522 16.0131 8.11156 15.371 8.68419 15.03C9.25682 14.6889 9.95364 14.7563 10.7747 15.23L11.6989 15.7626L11.8147 15.83L13.8884 17.0279L15.3284 17.8594C15.3936 17.7479 15.4547 17.6321 15.5094 17.5121C15.6063 17.31 15.6884 17.091 15.76 16.8594C15.7937 16.75 15.8252 16.6384 15.8526 16.5226C15.9347 16.1858 15.9894 15.8216 16.0168 15.4342C16.0315 15.2426 16.0379 15.0447 16.0379 14.8426C16.0379 14.4616 16.0168 14.0784 15.9747 13.6952ZM11.3347 14.4405C11.2 14.5163 11.0442 14.5121 10.8694 14.4237C10.8505 14.4152 10.8316 14.4047 10.8126 14.3942C10.6126 14.2805 10.4379 14.0931 10.2884 13.8363L10.1515 13.5984L8.79575 11.2594C8.72206 11.131 8.66524 11.0068 8.62735 10.8847C8.59156 10.7626 8.57259 10.6447 8.57259 10.531V7.10366C8.57259 6.86155 8.64419 6.69945 8.78735 6.61734C8.93051 6.53524 9.10733 6.55629 9.31785 6.67839C9.53049 6.8005 9.70733 6.98576 9.85049 7.23208C9.99364 7.47839 10.0652 7.7226 10.0652 7.96681V11.051L11.3347 13.2405C11.4842 13.4973 11.5579 13.7416 11.5579 13.9689C11.5579 14.1963 11.4842 14.3542 11.3347 14.4405Z" stroke="#363636" stroke-width="0.5"/>
<path d="M11.5578 13.9691C11.5578 14.1986 11.4841 14.3543 11.3347 14.4407C11.1999 14.5165 11.0441 14.5122 10.8694 14.4238C10.8504 14.4154 10.8315 14.4049 10.8126 14.3943C10.6126 14.2807 10.4379 14.0933 10.2884 13.8365L10.1515 13.5986L8.79573 11.2596C8.72204 11.1312 8.6652 11.007 8.62731 10.8849C8.59152 10.7628 8.57257 10.6449 8.57257 10.5312V7.10382C8.57257 6.86171 8.64415 6.69961 8.78731 6.6175C8.93047 6.5354 9.10729 6.55645 9.31781 6.67856C9.53044 6.80066 9.70731 6.98593 9.85047 7.23224C9.99362 7.47856 10.0652 7.72277 10.0652 7.96698V11.0512L11.3347 13.2407C11.4841 13.4975 11.5578 13.7417 11.5578 13.9691Z" stroke="#363636" stroke-width="0.5"/>
<path d="M20.9958 20.0217C20.9958 20.4932 20.8505 20.8132 20.5579 20.9795L20.4653 21.0258L16.3474 23.0847C16.64 22.9184 16.7853 22.5984 16.7853 22.1268C16.7853 21.6553 16.64 21.1689 16.3474 20.6638C16.0547 20.1606 15.7032 19.7901 15.2926 19.5522L10.8127 16.9648C10.4442 16.7543 10.1242 16.7038 9.85053 16.8132L11.8148 15.8301L13.8884 17.028L15.3284 17.8596L16.5305 17.2596L17.1432 16.9522L17.9495 16.5501L19.5032 17.4469C19.9137 17.6848 20.2653 18.0553 20.5579 18.5585C20.8505 19.0638 20.9958 19.5522 20.9958 20.0217Z" stroke="#363636" stroke-width="0.5"/>
<path d="M11.6989 15.7628L7.88209 17.6723C7.85682 17.5438 7.84 17.4217 7.83369 17.3038C7.82948 17.1859 7.82524 17.0681 7.82524 16.9544C7.82524 16.0133 8.11158 15.3712 8.68421 15.0302C9.25684 14.6891 9.95367 14.7565 10.7747 15.2302L11.6989 15.7628Z" stroke="#363636" stroke-width="0.5"/>
<path d="M20.2483 12.7374C20.2483 13.3501 20.1872 13.9122 20.063 14.4174C19.9388 14.9248 19.7641 15.369 19.5388 15.7543L17.9493 16.5501L17.143 16.9522L16.5304 17.2574L15.3283 17.8595C15.3936 17.748 15.4546 17.6322 15.5093 17.5122C15.6062 17.3101 15.6883 17.0911 15.7599 16.8595C15.7936 16.7501 15.8251 16.6385 15.8525 16.5227C15.9346 16.1858 15.9894 15.8217 16.0167 15.4343C16.0315 15.2427 16.0378 15.0448 16.0378 14.8427C16.0378 14.4617 16.0167 14.0785 15.9746 13.6953C15.922 13.1901 15.8315 12.6806 15.7052 12.169C15.5683 11.6069 15.3872 11.0385 15.1599 10.4701C14.9157 9.8511 14.6209 9.22797 14.2757 8.59849C14.2104 8.4827 14.1452 8.36692 14.0778 8.24902C13.6736 7.55007 13.242 6.90795 12.7831 6.32479C11.762 5.01953 10.6062 3.99428 9.31777 3.25113C8.58514 2.82797 7.89674 2.54586 7.25042 2.40481C6.37884 2.21113 5.58724 2.27428 4.87356 2.59428L8.76829 0.646911C10.0757 -0.0983525 11.663 0.0679612 13.5283 1.14586C15.3957 2.22376 16.9831 3.88902 18.2883 6.14376C19.5957 8.39639 20.2483 10.5943 20.2483 12.7374Z" stroke="#363636" stroke-width="0.5"/>
</g>
<defs>
<clipPath id="clip0_413_4720">
<rect width="23" height="24" fill="white"/>
</clipPath>
</defs>
</svg>
