<svg width="20" height="20" viewBox="0 0 20 20" fill="none" xmlns="http://www.w3.org/2000/svg">
<g clip-path="url(#clip0_413_16)">
<g filter="url(#filter0_ii_413_16)">
<path d="M10.1947 2.97213C10.4993 2.84595 10.8352 2.81302 11.1585 2.8774C11.4818 2.94181 11.779 3.1003 12.0121 3.33345L17.5003 8.82173C17.8128 9.13428 17.9876 9.55853 17.9876 10.0004C17.9876 10.4422 17.8125 10.8657 17.5003 11.1782L12.0121 16.6665C11.779 16.8995 11.4818 17.0582 11.1585 17.1225C10.8353 17.1868 10.5001 17.1539 10.1956 17.0278C9.89122 16.9017 9.63072 16.6885 9.4476 16.4145C9.2645 16.1406 9.16646 15.8182 9.16635 15.4887V13.3325L7.50034 13.3335C7.29622 13.3334 7.09915 13.2581 6.94662 13.1225C6.79425 12.987 6.69616 12.8006 6.67221 12.5981L6.66635 12.5004V7.50045C6.66635 7.27944 6.75422 7.06688 6.91049 6.9106C7.06677 6.75432 7.27932 6.66646 7.50034 6.66646H9.16635V4.51216C9.16642 4.20534 9.25134 3.90377 9.41147 3.64205C9.57159 3.3804 9.80147 3.16849 10.0746 3.02877L10.1947 2.97213ZM2.49936 6.66646C2.70345 6.66649 2.90055 6.74179 3.05307 6.8774C3.2056 7.01303 3.3036 7.20008 3.32748 7.40279L3.33334 7.49947V12.4995C3.33311 12.7118 3.25147 12.9163 3.1058 13.0708C2.96 13.2252 2.76022 13.3181 2.54819 13.3305C2.33637 13.3429 2.12794 13.2743 1.96518 13.1381C1.8023 13.0018 1.6973 12.808 1.67221 12.5971L1.66635 12.4995V7.49947C1.66647 7.27862 1.75432 7.06677 1.91049 6.9106C2.06669 6.75444 2.27849 6.66655 2.49936 6.66646ZM5.00034 6.66646C5.20432 6.66658 5.40161 6.74185 5.55405 6.8774C5.70638 7.01301 5.80362 7.20023 5.82748 7.40279L5.83334 7.49947V12.4995C5.83311 12.7118 5.75156 12.9163 5.6058 13.0708C5.46008 13.2251 5.26106 13.318 5.04916 13.3305C4.83717 13.343 4.62804 13.2744 4.46518 13.1381C4.3023 13.0018 4.1973 12.808 4.17221 12.5971L4.16635 12.4995V7.49947C4.16647 7.27866 4.25437 7.06677 4.41049 6.9106C4.56677 6.75432 4.77932 6.66646 5.00034 6.66646Z" fill="url(#paint0_linear_413_16)"/>
<path d="M10.1947 2.97213C10.4993 2.84595 10.8352 2.81302 11.1585 2.8774C11.4818 2.94181 11.779 3.1003 12.0121 3.33345L17.5003 8.82173C17.8128 9.13428 17.9876 9.55853 17.9876 10.0004C17.9876 10.4422 17.8125 10.8657 17.5003 11.1782L12.0121 16.6665C11.779 16.8995 11.4818 17.0582 11.1585 17.1225C10.8353 17.1868 10.5001 17.1539 10.1956 17.0278C9.89122 16.9017 9.63072 16.6885 9.4476 16.4145C9.2645 16.1406 9.16646 15.8182 9.16635 15.4887V13.3325L7.50034 13.3335C7.29622 13.3334 7.09915 13.2581 6.94662 13.1225C6.79425 12.987 6.69616 12.8006 6.67221 12.5981L6.66635 12.5004V7.50045C6.66635 7.27944 6.75422 7.06688 6.91049 6.9106C7.06677 6.75432 7.27932 6.66646 7.50034 6.66646H9.16635V4.51216C9.16642 4.20534 9.25134 3.90377 9.41147 3.64205C9.57159 3.3804 9.80147 3.16849 10.0746 3.02877L10.1947 2.97213ZM2.49936 6.66646C2.70345 6.66649 2.90055 6.74179 3.05307 6.8774C3.2056 7.01303 3.3036 7.20008 3.32748 7.40279L3.33334 7.49947V12.4995C3.33311 12.7118 3.25147 12.9163 3.1058 13.0708C2.96 13.2252 2.76022 13.3181 2.54819 13.3305C2.33637 13.3429 2.12794 13.2743 1.96518 13.1381C1.8023 13.0018 1.6973 12.808 1.67221 12.5971L1.66635 12.4995V7.49947C1.66647 7.27862 1.75432 7.06677 1.91049 6.9106C2.06669 6.75444 2.27849 6.66655 2.49936 6.66646ZM5.00034 6.66646C5.20432 6.66658 5.40161 6.74185 5.55405 6.8774C5.70638 7.01301 5.80362 7.20023 5.82748 7.40279L5.83334 7.49947V12.4995C5.83311 12.7118 5.75156 12.9163 5.6058 13.0708C5.46008 13.2251 5.26106 13.318 5.04916 13.3305C4.83717 13.343 4.62804 13.2744 4.46518 13.1381C4.3023 13.0018 4.1973 12.808 4.17221 12.5971L4.16635 12.4995V7.49947C4.16647 7.27866 4.25437 7.06677 4.41049 6.9106C4.56677 6.75432 4.77932 6.66646 5.00034 6.66646Z" fill="white" fill-opacity="0.25"/>
</g>
</g>
<defs>
<filter id="filter0_ii_413_16" x="1.66635" y="2.84531" width="16.3213" height="14.8871" filterUnits="userSpaceOnUse" color-interpolation-filters="sRGB">
<feFlood flood-opacity="0" result="BackgroundImageFix"/>
<feBlend mode="normal" in="SourceGraphic" in2="BackgroundImageFix" result="shape"/>
<feColorMatrix in="SourceAlpha" type="matrix" values="0 0 0 0 0 0 0 0 0 0 0 0 0 0 0 0 0 0 127 0" result="hardAlpha"/>
<feOffset dy="-0.577829"/>
<feComposite in2="hardAlpha" operator="arithmetic" k2="-1" k3="1"/>
<feColorMatrix type="matrix" values="0 0 0 0 1 0 0 0 0 1 0 0 0 0 1 0 0 0 1 0"/>
<feBlend mode="overlay" in2="shape" result="effect1_innerShadow_413_16"/>
<feColorMatrix in="SourceAlpha" type="matrix" values="0 0 0 0 0 0 0 0 0 0 0 0 0 0 0 0 0 0 127 0" result="hardAlpha"/>
<feOffset dy="0.577829"/>
<feGaussianBlur stdDeviation="2.31132"/>
<feComposite in2="hardAlpha" operator="arithmetic" k2="-1" k3="1"/>
<feColorMatrix type="matrix" values="0 0 0 0 1 0 0 0 0 1 0 0 0 0 1 0 0 0 1 0"/>
<feBlend mode="plus-lighter" in2="effect1_innerShadow_413_16" result="effect2_innerShadow_413_16"/>
</filter>
<linearGradient id="paint0_linear_413_16" x1="10.6211" y1="2.84531" x2="10.6211" y2="17.1546" gradientUnits="userSpaceOnUse">
<stop stop-color="#003FFF"/>
<stop offset="1" stop-color="#2864FF"/>
</linearGradient>
<clipPath id="clip0_413_16">
<rect width="20" height="20" fill="white"/>
</clipPath>
</defs>
</svg>
